<svg role="image" class="img-fluid my-2" id="home-image" viewBox="0 0 1386.7 1322.65"><defs><style>.cls-1,.cls-5,.cls-7{fill:none;}.cls-2{fill:#f4a36b;}.cls-3{fill:#18191eaa;}.cls-4{fill:#fff;}.cls-5{stroke:#ec6608;stroke-linejoin:round;stroke-width:10.54px;}.cls-12,.cls-6{fill:#ec6608;}.cls-12,.cls-7,.cls-8{stroke:#18191e;stroke-miterlimit:10;stroke-width:8.25px;}.cls-11,.cls-8{fill:#b73d25;}.cls-9{clip-path:url(#clip-path);}.cls-10{clip-path:url(#clip-path-2);}.cls-13{clip-path:url(#clip-path-3);}.cls-14{clip-path:url(#clip-path-4);}.cls-15{clip-path:url(#clip-path-5);}.cls-16{clip-path:url(#clip-path-6);}</style><clipPath id="clip-path" transform="translate(-19.87 -73.6)"><path class="cls-1" d="M807.32,1081.89c-4.21,6.27-60.61,22.07-67.44,18.91-7.81-3.61-28.82-15.92-33.38-21.59s-27.27-79.68-40.33-140.65c-8.24-38.44,18.41-73.59,33-95a10.44,10.44,0,0,1,4.71-2.11,7.86,7.86,0,0,1,.91-.12h0a9.67,9.67,0,0,1,2.15,0c23.64,10.69,80.32,29.31,93.29,66.42,20.57,58.87,30.76,117.38,29.82,124.6S812.11,1074.74,807.32,1081.89Z"/></clipPath><clipPath id="clip-path-2" transform="translate(-19.87 -73.6)"><path class="cls-1" d="M648.36,918.61a314.18,314.18,0,0,0,71.37-13.46c25.92-7.93,49.28-18.35,68.62-29.95A54.49,54.49,0,0,1,795.67,889c2.53,7.23,5,14.65,7.38,22.12-19.92,12.36-44.42,23.47-71.74,31.84-26.69,8.17-52.62,12.65-75.65,13.69-2.2-8.91-4.29-17.86-6.17-26.64A52.71,52.71,0,0,1,648.36,918.61Z"/></clipPath><clipPath id="clip-path-3" transform="translate(-19.87 -73.6)"><path class="cls-1" d="M1207,457.27c-1-7.49-44.66-46.54-52.18-46.72-8.6-.21-32.89,1.58-39.48,4.65s-59.62,59.49-98.24,108.45c-24.34,30.86-15.93,74.15-12.26,99.83a10.45,10.45,0,0,0,3.3,4,7.7,7.7,0,0,0,.77.5l0,0a10,10,0,0,0,1.95.9c25.93.83,85,9.12,113-18.46,44.42-43.76,79.39-91.78,81.72-98.67S1208.16,465.8,1207,457.27Z"/></clipPath><clipPath id="clip-path-4" transform="translate(-19.87 -73.6)"><path class="cls-1" d="M992.33,533.69a314.57,314.57,0,0,1,58.11,43.56c19.76,18.55,36.14,38.21,48.38,57.15a54.8,54.8,0,0,0,12.67-9.18c5.46-5.38,10.94-11,16.37-16.6-12.42-19.88-29.51-40.66-50.33-60.22-20.35-19.1-41.65-34.56-61.85-45.66-5.91,7-11.74,14.14-17.3,21.19A53.19,53.19,0,0,0,992.33,533.69Z"/></clipPath><clipPath id="clip-path-5" transform="translate(-19.87 -73.6)"><path class="cls-1" d="M362.63,316c-2-7.29,23-60.28,29.81-63.38,7.84-3.54,30.9-11.38,38.17-11.12S508.72,273,563.38,303c34.45,18.92,43.6,62.06,50.24,87.14a10.44,10.44,0,0,1-1.49,4.95,9.13,9.13,0,0,1-.51.76v0a9.4,9.4,0,0,1-1.45,1.59c-23.55,10.89-74.71,41.57-111.26,27.1-58-22.95-108.91-53.53-113.74-59S364.9,324.28,362.63,316Z"/></clipPath><clipPath id="clip-path-6" transform="translate(-19.87 -73.6)"><path class="cls-1" d="M590.11,302.58a314.47,314.47,0,0,0-36.51,62.78c-11,24.79-18.36,49.28-22.24,71.5a54.79,54.79,0,0,1-15.25-3.51c-7.12-2.82-14.35-5.81-21.55-8.9,3.68-23.15,11.3-48.95,22.85-75.08,11.28-25.53,24.86-48.08,39.13-66.18,8.18,4.17,16.32,8.44,24.19,12.76A53.21,53.21,0,0,1,590.11,302.58Z"/></clipPath></defs><path class="cls-2" d="M1276.09,133.88c29.06,43.14-14.59,128.21-105.77,224.67q11.15,11.56,22.52,22.92c9.83,9.85,19.72,19.62,29.6,29.41s19.74,19.59,29.49,29.5c3.16,3.21,6.27,6.46,9.4,9.7,120.83-126.19,175.92-253,128-324-68.64-101.92-322.94-50.75-568,114.29a1259.52,1259.52,0,0,0-105.08,78.91q13.38-9.37,27.12-18.63C988.48,135.57,1227,60.92,1276.09,133.88Z" transform="translate(-19.87 -73.6)"/><path class="cls-2" d="M94.49,318.79c18.9-48.56,111-37.25,238,19.81q3.24-16.59,6.2-33.33c2.59-14.47,5.07-29,7.58-43.49s5-29,7.7-43.41c.87-4.67,1.79-9.32,2.7-14-167-76.28-298.82-82.57-330-2.56C-18,316.58,161.19,565.3,426.86,757.37c40.71,29.44,81.1,55.83,120.46,79q-14.79-10.33-29.69-21.1C252,623.2,62.51,400.92,94.49,318.79Z" transform="translate(-19.87 -73.6)"/><path class="cls-2" d="M961.71,1308.42c-46.13.34-87.18-73.82-113.08-188.81q-14,2.58-28,5.44c-12.11,2.44-24.2,5-36.29,7.49s-24.19,5-36.31,7.37c-3.92.76-7.86,1.48-11.79,2.2,33.12,151.58,99.2,254.7,175.21,254.14,109-.81,197.14-214.48,196.87-477.24a1123.81,1123.81,0,0,0-6.1-116.66q.27,14.5.29,29.25C1102.76,1094.36,1039.73,1307.83,961.71,1308.42Z" transform="translate(-19.87 -73.6)"/><g id="ball" class="spin"><path class="cls-3" d="M1156.22,663.42c-.43,0-.86,0-1.28.07L1150.06,607a20.06,20.06,0,1,0-8.75-32.46l-61.76-114.44a20.05,20.05,0,1,0-23.38-32.13l-59.56-62.24a20,20,0,1,0-25.32-21l-81.56-47.21a20,20,0,1,0-37.19-12.83L730.16,267.34a20,20,0,1,0-34.92,2.52L656.49,281.6a20,20,0,0,0-38.58,10.88L461,333.48a20,20,0,1,0-29.91,21.58L292.39,538.73a20,20,0,1,0-13.84,35.95L265.61,720.39c-.6,0-1.21-.09-1.83-.09a20.06,20.06,0,1,0,3.41,39.8l9.6,53.51a20,20,0,1,0,12.7,37.54l60.87,118.34a20,20,0,1,0,23.7,29.82l61.86,56.63a20,20,0,1,0,31.25,24.64l66.41,44.57a20,20,0,1,0,36.47,14.12l127.54,18.93a19,19,0,0,0-.24,2.94,20.06,20.06,0,1,0,39.25-5.77l226.72-68.13a20,20,0,1,0,31.24-21.78L1132.43,882a20,20,0,1,0,13.29-36l8.93-142.53c.52,0,1,.07,1.57.07a20.06,20.06,0,1,0,0-40.11Z" transform="translate(-19.87 -73.6)"/><circle class="cls-4" cx="690.13" cy="646.7" r="265.99"/><polygon class="cls-5" points="834.22 326.13 776.76 529 572.15 399.27 834.22 326.13"/><polygon class="cls-5" points="834.22 326.13 776.76 529 1001.39 553.38 834.22 326.13"/><polygon class="cls-5" points="834.22 326.13 1050.15 368.79 1001.39 553.38 834.22 326.13"/><polygon class="cls-5" points="1136.35 604.75 1050.15 368.79 1001.39 553.38 1136.35 604.75"/><polygon class="cls-5" points="1136.35 604.75 1050.15 368.79 1128.51 513.99 1136.35 604.75"/><polygon class="cls-5" points="834.22 326.13 1050.15 368.79 852.51 213.81 834.22 326.13"/><polygon class="cls-5" points="963.08 277.81 1050.15 368.79 852.51 213.81 963.08 277.81"/><polygon class="cls-5" points="834.22 326.13 617.43 213.81 852.51 213.81 834.22 326.13"/><polygon class="cls-5" points="834.22 326.13 617.43 213.81 572.15 399.27 834.22 326.13"/><polygon class="cls-5" points="401.5 341.8 617.43 213.81 572.15 399.27 401.5 341.8"/><polygon class="cls-5" points="401.5 341.8 349.26 562.95 572.15 399.27 401.5 341.8"/><polygon class="cls-5" points="572.15 674.4 349.26 562.95 572.15 399.27 572.15 674.4"/><polygon class="cls-5" points="572.15 674.4 776.76 529 572.15 399.27 572.15 674.4"/><polygon class="cls-5" points="572.15 674.4 776.76 529 840.32 770.17 572.15 674.4"/><polygon class="cls-5" points="572.15 674.4 624.39 934.73 840.32 770.17 572.15 674.4"/><polygon class="cls-5" points="572.15 674.4 624.39 934.73 404.98 814.58 572.15 674.4"/><polygon class="cls-5" points="1001.39 553.38 776.76 529 840.32 770.17 1001.39 553.38"/><polygon class="cls-5" points="1001.39 553.38 1050.15 814.58 840.32 770.17 1001.39 553.38"/><polygon class="cls-5" points="858.17 972.61 1050.15 814.58 840.32 770.17 858.17 972.61"/><polygon class="cls-5" points="858.17 972.61 624.39 934.73 840.32 770.17 858.17 972.61"/><polygon class="cls-5" points="858.17 972.61 624.39 934.73 697.53 1087.54 858.17 972.61"/><polygon class="cls-5" points="858.17 972.61 1050.15 814.58 962.65 1007.87 858.17 972.61"/><polygon class="cls-5" points="858.17 972.61 697.53 1087.54 962.65 1007.87 858.17 972.61"/><polygon class="cls-5" points="1001.39 553.38 1050.15 814.58 1136.35 604.75 1001.39 553.38"/><polygon class="cls-5" points="1124.6 792.38 1050.15 814.58 1136.35 604.75 1124.6 792.38"/><polygon class="cls-5" points="1124.6 792.38 1050.15 814.58 962.65 1007.87 1124.6 792.38"/><polygon class="cls-5" points="401.5 341.8 349.26 562.95 260.45 481.11 401.5 341.8"/><polygon class="cls-5" points="260.45 759.73 349.26 562.95 260.45 481.11 260.45 759.73"/><polygon class="cls-5" points="260.45 759.73 349.26 562.95 404.98 814.58 260.45 759.73"/><polygon class="cls-5" points="572.15 674.4 349.26 562.95 404.98 814.58 572.15 674.4"/><polygon class="cls-5" points="260.45 759.73 243.91 667.43 260.45 481.11 260.45 759.73"/><polygon class="cls-5" points="401.5 341.8 424.13 264.31 260.45 481.11 401.5 341.8"/><polygon class="cls-5" points="401.5 341.8 617.43 213.81 424.13 264.31 401.5 341.8"/><polygon class="cls-5" points="692.13 191.18 617.43 213.81 852.51 213.81 692.13 191.18"/><polygon class="cls-5" points="431.1 996.12 624.39 934.73 404.98 814.58 431.1 996.12"/><polygon class="cls-5" points="431.1 996.12 260.45 759.73 404.98 814.58 431.1 996.12"/><polygon class="cls-5" points="431.1 996.12 260.45 759.73 338.37 911.23 431.1 996.12"/><polygon class="cls-5" points="431.1 996.12 624.39 934.73 697.53 1087.54 431.1 996.12"/><polygon class="cls-5" points="431.1 996.12 530.36 1062.72 697.53 1087.54 431.1 996.12"/><circle class="cls-4" cx="572.15" cy="399.27" r="25.21"/><circle class="cls-4" cx="776.76" cy="529" r="25.21"/><circle class="cls-4" cx="572.15" cy="674.4" r="25.21"/><circle class="cls-4" cx="349.26" cy="562.95" r="25.21"/><circle class="cls-4" cx="624.39" cy="934.73" r="25.21"/><circle class="cls-4" cx="404.98" cy="814.58" r="25.21"/><circle class="cls-4" cx="840.32" cy="770.18" r="25.21"/><circle class="cls-4" cx="858.17" cy="972.61" r="25.21"/><circle class="cls-4" cx="1050.15" cy="814.58" r="25.21"/><circle class="cls-4" cx="1001.39" cy="553.38" r="25.21"/><circle class="cls-4" cx="834.22" cy="326.13" r="25.21"/><circle class="cls-4" cx="617.43" cy="213.81" r="20.06"/><circle class="cls-4" cx="852.51" cy="213.81" r="20.06"/><circle class="cls-4" cx="692.13" cy="185.26" r="20.06"/><circle class="cls-4" cx="971.39" cy="272.77" r="20.06"/><circle class="cls-4" cx="1050.15" cy="368.79" r="20.06"/><circle class="cls-4" cx="421.55" cy="264.31" r="20.06"/><circle class="cls-4" cx="260.45" cy="481.11" r="20.06"/><circle class="cls-4" cx="243.91" cy="666.75" r="20.06"/><circle class="cls-4" cx="260.45" cy="759.73" r="20.06"/><circle class="cls-4" cx="337.44" cy="914.68" r="20.06"/><circle class="cls-4" cx="430.19" cy="996.55" r="20.06"/><circle class="cls-4" cx="530.36" cy="1062.72" r="20.06"/><circle class="cls-4" cx="697.53" cy="1087.54" r="20.06"/><circle class="cls-4" cx="962.65" cy="1007.87" r="20.06"/><circle class="cls-4" cx="1124.59" cy="792.38" r="20.06"/><circle class="cls-4" cx="1136.35" cy="609.88" r="20.06"/><circle class="cls-4" cx="1136.35" cy="514.26" r="20.06"/></g><path class="cls-4" d="M796,1149c9.81-2.63,21.42,8.87,25.93,25.68s3,82.5,3,82.5-34.09-56.16-38.6-73S786.2,1151.6,796,1149Z" transform="translate(-19.87 -73.6)"/><polygon class="cls-6" points="703.45 1115.83 751.37 1098.73 723.91 1003.8 698.72 1007.68 703.45 1115.83"/><polygon class="cls-6" points="855.99 1069.13 806.71 1081.79 776.34 987.76 799.38 976.87 855.99 1069.13"/><polygon class="cls-7" points="703.45 1115.83 751.37 1098.73 723.91 1003.8 698.72 1007.68 703.45 1115.83"/><polygon class="cls-7" points="855.99 1069.13 806.71 1081.79 776.34 987.76 799.38 976.87 855.99 1069.13"/><path class="cls-8" d="M796.79,1156.23c-17.53,5.36-32.86,6-34.24,1.53L742.71,1093l63.47-19.43L826,1138.33C827.4,1142.85,814.31,1150.86,796.79,1156.23Z" transform="translate(-19.87 -73.6)"/><path class="cls-4" d="M807.32,1081.89c-4.21,6.27-60.61,22.07-67.44,18.91-7.81-3.61-45.2-28.88-49.76-34.55S662.55,991,649.49,930c-8.24-38.43,30.48-83.82,45.1-105.25a10.44,10.44,0,0,1,4.72-2.11c.31,0,.62-.1.9-.12h0a10.47,10.47,0,0,1,2.15.05C726,833.3,782.71,851.92,795.67,889c20.57,58.87,37.12,130.25,36.17,137.46S812.11,1074.74,807.32,1081.89Z" transform="translate(-19.87 -73.6)"/><g class="cls-9"><ellipse class="cls-6" cx="748.96" cy="981.97" rx="93.66" ry="184.16" transform="translate(-248.5 153.7) rotate(-15)"/><ellipse class="cls-2" cx="744.11" cy="979.46" rx="26.66" ry="162.62" transform="translate(-263.39 172.63) rotate(-16.18)"/></g><g class="cls-10"><path class="cls-6" d="M648.36,918.61a314.18,314.18,0,0,0,71.37-13.46c25.92-7.93,49.28-18.35,68.62-29.95A54.49,54.49,0,0,1,795.67,889c2.53,7.23,5,14.65,7.38,22.12-19.92,12.36-44.42,23.47-71.74,31.84-26.69,8.17-52.62,12.65-75.65,13.69-2.2-8.91-4.29-17.86-6.17-26.64A52.71,52.71,0,0,1,648.36,918.61Z" transform="translate(-19.87 -73.6)"/><path class="cls-11" d="M648.36,918.61a314.18,314.18,0,0,0,71.37-13.46c25.92-7.93,49.28-18.35,68.62-29.95A54.49,54.49,0,0,1,795.67,889c2.53,7.23,5,14.65,7.38,22.12-19.92,12.36-44.42,23.47-71.74,31.84-26.69,8.17-52.62,12.65-75.65,13.69-2.2-8.91-4.29-17.86-6.17-26.64A52.71,52.71,0,0,1,648.36,918.61Z" transform="translate(-19.87 -73.6)"/></g><path class="cls-7" d="M807.32,1081.89c-4.21,6.27-60.61,22.07-67.44,18.91-7.81-3.61-45.2-28.88-49.76-34.55S662.55,991,649.49,930c-8.24-38.43,30.48-83.82,45.1-105.25a10.44,10.44,0,0,1,4.72-2.11c.31,0,.62-.1.9-.12h0a10.47,10.47,0,0,1,2.15.05C726,833.3,782.71,851.92,795.67,889c20.57,58.87,37.12,130.25,36.17,137.46S812.11,1074.74,807.32,1081.89Z" transform="translate(-19.87 -73.6)"/><polygon class="cls-12" points="759 998.17 744.67 1002.56 767.33 1095 791.97 1087.46 759 998.17"/><path class="cls-4" d="M1226.45,392.08c7.65,6.69,23.15,1.5,34.61-11.61s39.13-72.69,39.13-72.69-55.37,35.36-66.83,48.47S1218.81,385.39,1226.45,392.08Z" transform="translate(-19.87 -73.6)"/><polygon class="cls-6" points="1159.19 250.1 1194.65 286.58 1128.14 359.66 1107.24 345.07 1159.19 250.1"/><polygon class="cls-6" points="1275.5 359.29 1236.85 326.2 1168.12 397.19 1183.99 417.12 1275.5 359.29"/><polygon class="cls-7" points="1159.19 250.1 1194.65 286.58 1128.14 359.66 1107.24 345.07 1159.19 250.1"/><polygon class="cls-7" points="1275.5 359.29 1236.85 326.2 1168.12 397.19 1183.99 417.12 1275.5 359.29"/><path class="cls-8" d="M1230.35,385.91c-13.37-12.55-26.82-19.92-30.06-16.48l-46.38,49.41,48.39,45.43,46.39-49.41C1251.92,411.42,1243.71,398.45,1230.35,385.91Z" transform="translate(-19.87 -73.6)"/><path class="cls-4" d="M1207,457.27c-1-7.49-44.66-46.54-52.18-46.72-8.6-.21-53.31,6-59.9,9.06S1037,475,998.38,523.93c-24.34,30.86-9.62,88.68-5.94,114.35a10.45,10.45,0,0,0,3.3,4,7.61,7.61,0,0,0,.76.5l0,0a9.72,9.72,0,0,0,2,.9c25.93.84,85,9.12,113-18.46,44.43-43.76,90.76-100.53,93.09-107.42S1208.16,465.8,1207,457.27Z" transform="translate(-19.87 -73.6)"/><g class="cls-13"><ellipse class="cls-6" cx="1110.57" cy="521.2" rx="184.16" ry="93.66" transform="translate(-32.75 940.42) rotate(-48.83)"/><ellipse class="cls-2" cx="1105.1" cy="521.32" rx="162.62" ry="26.66" transform="translate(-44.58 913.08) rotate(-47.64)"/></g><g class="cls-14"><path class="cls-6" d="M992.33,533.69a314.57,314.57,0,0,1,58.11,43.56c19.76,18.55,36.14,38.21,48.38,57.15a54.8,54.8,0,0,0,12.67-9.18c5.46-5.38,10.94-11,16.37-16.6-12.42-19.88-29.51-40.66-50.33-60.22-20.35-19.1-41.65-34.56-61.85-45.66-5.91,7-11.74,14.14-17.3,21.19A53.19,53.19,0,0,0,992.33,533.69Z" transform="translate(-19.87 -73.6)"/><path class="cls-11" d="M992.33,533.69a314.57,314.57,0,0,1,58.11,43.56c19.76,18.55,36.14,38.21,48.38,57.15a54.8,54.8,0,0,0,12.67-9.18c5.46-5.38,10.94-11,16.37-16.6-12.42-19.88-29.51-40.66-50.33-60.22-20.35-19.1-41.65-34.56-61.85-45.66-5.91,7-11.74,14.14-17.3,21.19A53.19,53.19,0,0,0,992.33,533.69Z" transform="translate(-19.87 -73.6)"/></g><path class="cls-7" d="M1207,457.27c-1-7.49-44.66-46.54-52.18-46.72-8.6-.21-53.31,6-59.9,9.06S1037,475,998.38,523.93c-24.34,30.86-9.62,88.68-5.94,114.35a10.45,10.45,0,0,0,3.3,4,7.61,7.61,0,0,0,.76.5l0,0a9.72,9.72,0,0,0,2,.9c25.93.84,85,9.12,113-18.46,44.43-43.76,90.76-100.53,93.09-107.42S1208.16,465.8,1207,457.27Z" transform="translate(-19.87 -73.6)"/><polygon class="cls-12" points="1157.15 380.19 1146.22 369.94 1207.33 296.97 1226.12 314.61 1157.15 380.19"/><path class="cls-4" d="M319.29,263.55c-4.43,9.14-20.72,10.4-36.39,2.81s-64.39-51.66-64.39-51.66,64.78,11,80.44,18.54S323.72,254.4,319.29,263.55Z" transform="translate(-19.87 -73.6)"/><polygon class="cls-6" points="316.38 108.49 297.96 155.92 387.71 197.25 401.26 175.67 316.38 108.49"/><polygon class="cls-6" points="251.89 254.41 274.56 208.86 365.55 247.41 358.7 271.95 251.89 254.41"/><polygon class="cls-7" points="316.38 108.49 297.96 155.92 387.71 197.25 401.26 175.67 316.38 108.49"/><polygon class="cls-7" points="251.89 254.41 274.56 208.86 365.55 247.41 358.7 271.95 251.89 254.41"/><path class="cls-8" d="M313.3,259.38c7.41-16.76,16.92-28.81,21.24-26.9l62,27.4L369.7,320.59l-62-27.39C303.39,291.28,305.89,276.14,313.3,259.38Z" transform="translate(-19.87 -73.6)"/><path class="cls-4" d="M362.63,316c-2-7.29,23-60.28,29.81-63.38,7.84-3.54,51.42-15.29,58.69-15s74.94,28.37,129.6,58.38c34.45,18.92,43.46,77.9,50.09,103a10.41,10.41,0,0,1-1.49,4.94,7.7,7.7,0,0,1-.5.76l0,0a10.19,10.19,0,0,1-1.44,1.59c-23.55,10.88-74.72,41.57-111.26,27.1-58-23-122.79-57.15-127.63-62.58S364.9,324.28,362.63,316Z" transform="translate(-19.87 -73.6)"/><g class="cls-15"><ellipse class="cls-6" cx="476.37" cy="337.21" rx="93.66" ry="184.16" transform="translate(-54.73 545.19) rotate(-64.14)"/><ellipse class="cls-2" cx="481.45" cy="335.19" rx="26.66" ry="162.62" transform="translate(-44 559.14) rotate(-65.32)"/></g><g class="cls-16"><path class="cls-6" d="M590.11,302.58a314.47,314.47,0,0,0-36.51,62.78c-11,24.79-18.36,49.28-22.24,71.5a54.79,54.79,0,0,1-15.25-3.51c-7.12-2.82-14.35-5.81-21.55-8.9,3.68-23.15,11.3-48.95,22.85-75.08,11.28-25.53,24.86-48.08,39.13-66.18,8.18,4.17,16.32,8.44,24.19,12.76A53.21,53.21,0,0,1,590.11,302.58Z" transform="translate(-19.87 -73.6)"/><path class="cls-11" d="M590.11,302.58a314.47,314.47,0,0,0-36.51,62.78c-11,24.79-18.36,49.28-22.24,71.5a54.79,54.79,0,0,1-15.25-3.51c-7.12-2.82-14.35-5.81-21.55-8.9,3.68-23.15,11.3-48.95,22.85-75.08,11.28-25.53,24.86-48.08,39.13-66.18,8.18,4.17,16.32,8.44,24.19,12.76A53.21,53.21,0,0,1,590.11,302.58Z" transform="translate(-19.87 -73.6)"/></g><path class="cls-7" d="M362.63,316c-2-7.29,23-60.28,29.81-63.38,7.84-3.54,51.42-15.29,58.69-15s74.94,28.37,129.6,58.38c34.45,18.92,43.46,77.9,50.09,103a10.41,10.41,0,0,1-1.49,4.94,7.7,7.7,0,0,1-.5.76l0,0a10.19,10.19,0,0,1-1.44,1.59c-23.55,10.88-74.72,41.57-111.26,27.1-58-23-122.79-57.15-127.63-62.58S364.9,324.28,362.63,316Z" transform="translate(-19.87 -73.6)"/><polygon class="cls-12" points="369.01 227.48 375.07 213.78 290.33 170.43 279.92 194 369.01 227.48"/></svg>