<?xml version="1.0" encoding="utf-8"?>
<!-- Generator: Adobe Illustrator 16.0.0, SVG Export Plug-In . SVG Version: 6.00 Build 0)  -->
<!DOCTYPE svg PUBLIC "-//W3C//DTD SVG 1.1//EN" "http://www.w3.org/Graphics/SVG/1.1/DTD/svg11.dtd">
<svg version="1.1" id="Livello_1" xmlns="http://www.w3.org/2000/svg" xmlns:xlink="http://www.w3.org/1999/xlink" x="0px" y="0px"
	 width="169.883px" height="18.433px" viewBox="0 0 169.883 18.433" enable-background="new 0 0 169.883 18.433"
	 xml:space="preserve">
<g id="layer1">
	<g id="g912">
		<path id="path14" fill="#FF6600" d="M28.944,17.928H26.76V2.424H24l-8.52,13.584c-0.288,0.433-0.601,0.648-0.937,0.648
			s-0.648-0.216-0.936-0.648L4.896,2.424H2.184v15.504H0V1.344C0,0.608,0.376,0.24,1.128,0.24h4.416
			c0.384,0,0.688,0.168,0.912,0.504l8.088,12.624l7.944-12.601C22.696,0.416,23,0.24,23.4,0.24h4.439
			c0.736,0,1.104,0.368,1.104,1.104V17.928z"/>
		<path id="path16" fill="#FF6600" d="M54.372,11.664c0,0.88-0.031,1.656-0.096,2.328s-0.208,1.248-0.432,1.729
			c-0.225,0.479-0.553,0.88-0.984,1.199c-0.432,0.32-1.008,0.576-1.728,0.769c-0.721,0.176-1.616,0.304-2.688,0.384
			s-2.352,0.12-3.84,0.12h-2.688c-1.504,0-2.792-0.04-3.863-0.12c-1.057-0.08-1.952-0.208-2.688-0.384
			c-0.72-0.192-1.296-0.448-1.728-0.769c-0.416-0.319-0.744-0.72-0.984-1.199c-0.224-0.48-0.368-1.057-0.432-1.729
			c-0.064-0.672-0.097-1.448-0.097-2.328V6.528c0-0.88,0.032-1.656,0.097-2.328c0.063-0.672,0.208-1.248,0.432-1.729
			c0.24-0.479,0.568-0.88,0.984-1.199c0.432-0.32,1.008-0.568,1.728-0.744c0.736-0.192,1.632-0.328,2.688-0.408
			C39.124,0.04,40.412,0,41.916,0h2.688c1.488,0,2.768,0.04,3.84,0.12s1.968,0.216,2.688,0.408c0.72,0.176,1.296,0.424,1.728,0.744
			c0.432,0.319,0.76,0.72,0.984,1.199c0.224,0.48,0.367,1.057,0.432,1.729s0.096,1.448,0.096,2.328h-2.184
			c0-0.64-0.016-1.185-0.048-1.633c-0.032-0.464-0.128-0.855-0.288-1.176c-0.16-0.319-0.4-0.576-0.72-0.768
			c-0.305-0.208-0.736-0.36-1.297-0.456c-0.56-0.112-1.271-0.185-2.136-0.216c-0.848-0.048-1.88-0.072-3.096-0.072h-2.688
			c-1.216,0-2.256,0.024-3.12,0.072c-0.848,0.031-1.552,0.104-2.111,0.216c-0.561,0.096-1,0.248-1.32,0.456
			c-0.32,0.191-0.56,0.448-0.72,0.768c-0.16,0.32-0.256,0.712-0.288,1.176c-0.032,0.448-0.048,0.993-0.048,1.633v5.136
			c0,0.624,0.016,1.168,0.048,1.632s0.128,0.856,0.288,1.177c0.16,0.319,0.399,0.584,0.72,0.792c0.32,0.191,0.76,0.344,1.32,0.456
			c0.56,0.096,1.264,0.168,2.111,0.216c0.849,0.031,1.889,0.048,3.12,0.048h2.688c1.84,0,3.264-0.048,4.271-0.145
			c1.024-0.096,1.776-0.296,2.257-0.6c0.495-0.304,0.792-0.736,0.888-1.296c0.112-0.576,0.168-1.336,0.168-2.28v-1.056h-8.472V8.424
			h9.552c0.416,0,0.704,0.072,0.864,0.217c0.159,0.144,0.239,0.424,0.239,0.84V11.664z"/>
		<path id="path20" fill="#FF6600" d="M98.119,17.928H82.783c-0.72,0-1.08-0.376-1.08-1.128V0.24h2.184v15.504h14.232V17.928z"/>
		<path id="path22" fill="#FF6600" d="M109.933,9.456
			L109.933,9.456z M123.181,17.4l-1.92,1.032l-9.048-16.009h-2.256l-9.048,16.009l-1.92-1.032l9.384-16.584
			c0.208-0.385,0.528-0.576,0.96-0.576h3.552c0.4,0,0.712,0.191,0.937,0.576L123.181,17.4z"/>
		<path id="path24" fill="#FF6600" d="M125.25,1.344c0-0.735,0.368-1.104,1.104-1.104h12.864c1.313,0,2.4,0.088,3.265,0.264
			c0.863,0.176,1.544,0.479,2.039,0.912c0.496,0.416,0.841,0.968,1.032,1.656c0.208,0.688,0.313,1.544,0.313,2.567
			c0,0.736-0.128,1.328-0.384,1.776c-0.24,0.448-0.576,0.816-1.009,1.104c0.305,0.128,0.584,0.296,0.84,0.504
			c0.257,0.191,0.473,0.447,0.648,0.768s0.313,0.729,0.408,1.224c0.112,0.48,0.168,1.072,0.168,1.776
			c0,0.96-0.096,1.768-0.288,2.424c-0.176,0.641-0.52,1.168-1.032,1.584c-0.496,0.4-1.2,0.688-2.111,0.864
			c-0.896,0.176-2.064,0.264-3.505,0.264h-13.248c-0.735,0-1.104-0.376-1.104-1.128V1.344z M144.354,12.769
			c0-0.561-0.023-1.008-0.071-1.345c-0.048-0.352-0.137-0.632-0.265-0.84s-0.319-0.368-0.575-0.479
			c-0.24-0.112-0.561-0.217-0.96-0.313c-0.353-0.08-0.601-0.191-0.744-0.336c-0.145-0.16-0.217-0.376-0.217-0.647
			c0-0.272,0.064-0.473,0.192-0.601c0.128-0.144,0.304-0.264,0.528-0.359c0.304-0.129,0.544-0.257,0.72-0.385
			c0.192-0.144,0.336-0.296,0.432-0.456c0.112-0.176,0.185-0.376,0.217-0.6c0.048-0.224,0.071-0.488,0.071-0.792
			c0-0.688-0.063-1.24-0.191-1.656c-0.112-0.416-0.328-0.736-0.648-0.96c-0.32-0.24-0.775-0.392-1.368-0.456
			c-0.576-0.08-1.328-0.12-2.256-0.12h-11.76v13.297h12.144c1.024,0,1.849-0.049,2.473-0.145c0.624-0.112,1.104-0.28,1.439-0.504
			c0.336-0.24,0.561-0.544,0.672-0.912C144.298,13.776,144.354,13.313,144.354,12.769L144.354,12.769z"/>
		<path id="path26" fill="#FF6600" d="M164.939,8.04c0.928,0,1.704,0.104,2.328,0.313c0.64,0.191,1.151,0.472,1.536,0.84
			c0.384,0.352,0.655,0.775,0.815,1.271c0.176,0.496,0.264,1.032,0.264,1.608v1.08c0,0.992-0.111,1.815-0.336,2.472
			c-0.208,0.641-0.624,1.152-1.248,1.536c-0.607,0.384-1.472,0.648-2.592,0.792c-1.104,0.16-2.56,0.24-4.368,0.24h-3.647
			c-1.776,0-3.216-0.08-4.32-0.24c-1.104-0.144-1.968-0.416-2.592-0.816c-0.624-0.399-1.048-0.943-1.272-1.632
			c-0.224-0.688-0.336-1.567-0.336-2.64v-0.6h2.185v0.552c0,0.688,0.071,1.24,0.216,1.655c0.16,0.416,0.464,0.736,0.912,0.961
			c0.448,0.224,1.08,0.376,1.896,0.456c0.832,0.063,1.912,0.096,3.24,0.096h3.672c1.376,0,2.48-0.032,3.313-0.096
			c0.848-0.064,1.496-0.192,1.943-0.385c0.465-0.208,0.769-0.487,0.912-0.84c0.16-0.368,0.24-0.848,0.24-1.439v-0.96
			c0-0.4-0.056-0.729-0.168-0.984c-0.096-0.256-0.296-0.456-0.6-0.6c-0.288-0.16-0.696-0.272-1.225-0.337
			c-0.527-0.063-1.208-0.096-2.04-0.096c-1.2,0-2.416,0.024-3.647,0.072c-1.216,0.032-2.424,0.048-3.624,0.048
			c-1.057,0-2.024-0.048-2.904-0.145c-0.864-0.096-1.608-0.304-2.232-0.623c-0.607-0.337-1.088-0.801-1.439-1.393
			c-0.336-0.607-0.504-1.416-0.504-2.424V4.775c0-0.943,0.111-1.72,0.336-2.327c0.224-0.624,0.64-1.112,1.248-1.465
			c0.624-0.367,1.479-0.624,2.567-0.768C154.571,0.072,155.995,0,157.739,0h3.456c1.68,0,3.072,0.063,4.176,0.191
			c1.12,0.128,2.008,0.36,2.664,0.696c0.656,0.32,1.12,0.768,1.392,1.344c0.272,0.576,0.408,1.313,0.408,2.208v0.504h-2.184V4.632
			c0-0.512-0.104-0.92-0.313-1.224c-0.208-0.32-0.56-0.568-1.056-0.744c-0.48-0.177-1.136-0.296-1.968-0.36
			c-0.816-0.064-1.84-0.096-3.072-0.096h-3.624c-1.28,0-2.32,0.031-3.12,0.096s-1.424,0.192-1.872,0.384
			c-0.447,0.176-0.752,0.433-0.912,0.769c-0.144,0.336-0.216,0.775-0.216,1.319V5.76c0,0.448,0.057,0.832,0.168,1.152
			c0.128,0.304,0.368,0.552,0.721,0.744c0.367,0.191,0.863,0.328,1.487,0.408c0.641,0.079,1.48,0.119,2.521,0.119
			c1.424,0,2.848-0.023,4.271-0.071C162.091,8.063,163.516,8.04,164.939,8.04L164.939,8.04z"/>
		<path id="path18" fill="#FF6600" d="M66.386,9.456
			L66.386,9.456z M79.634,17.4l-1.92,1.032L68.666,2.424H66.41l-9.048,16.009l-1.92-1.032l9.384-16.584
			c0.208-0.385,0.528-0.576,0.96-0.576h3.552c0.4,0,0.712,0.191,0.937,0.576L79.634,17.4z"/>
		<rect id="rect863" x="66.609" y="5.93" fill="#FF6600" width="1.92" height="1.749"/>
		<rect id="rect863-1" x="110.081" y="5.956" fill="#FF6600" width="1.919" height="1.749"/>
	</g>
</g>
</svg>
