<?xml version="1.0" encoding="utf-8"?>
<!-- Generator: Adobe Illustrator 16.0.0, SVG Export Plug-In . SVG Version: 6.00 Build 0)  -->
<!DOCTYPE svg PUBLIC "-//W3C//DTD SVG 1.1//EN" "http://www.w3.org/Graphics/SVG/1.1/DTD/svg11.dtd">
<svg version="1.1" id="Livello_1" xmlns="http://www.w3.org/2000/svg" xmlns:xlink="http://www.w3.org/1999/xlink" x="0px" y="0px"
	 width="512px" height="587.844px" viewBox="0 0 512 587.844" enable-background="new 0 0 512 587.844" xml:space="preserve">
<g>
	<path fill="#FFFFFF" d="M500.782,0.399H11.22H0v11.219v489.563v11.22H11.22h116.392c-0.114-1.858-0.173-3.732-0.206-5.608
		c-0.013-0.77-0.06-1.529-0.06-2.298c0-1.11,0.057-2.209,0.084-3.313H11.22V11.618h489.563v489.563H384.571
		c0.026,1.104,0.081,2.203,0.081,3.313c0,0.769-0.042,1.528-0.057,2.298c-0.034,1.876-0.096,3.75-0.205,5.608h116.392H512v-11.22
		V11.618V0.399H500.782z"/>
</g>
<g>
	<defs>
		<path id="SVGID_1_" d="M213.331,433.426c-4.817,7.691-7.449,16.556-7.612,25.636c0,0.092,0.12,4.064,0.12,4.064
			c0.355,5.65,1.596,11.061,3.706,16.099c0.74,1.781,1.651,3.599,2.776,5.559c3.972,8.849,5.98,18.265,5.98,27.985
			c0,10.082-2.152,19.815-6.404,28.929c-1.062,2.273-2.241,4.474-3.494,6.548c-4.985-8.448-8.127-17.916-9.126-27.573v-26.509
			c-0.003-16.354-13.31-29.661-29.664-29.661c-16.358,0-29.667,13.31-29.667,29.667c0,13.459,9.105,25.246,22.142,28.663
			c2.526,0.662,5.06,1.001,7.525,1.001c1.525,0,3.115-0.146,4.865-0.433l1.804-0.3v-13.578v-2.88l-2.76,0.812
			c-1.288,0.378-2.604,0.567-3.909,0.567c-2.093,0-4.127-0.47-6.041-1.403c-4.817-2.338-7.816-7.115-7.816-12.449
			c0-7.641,6.214-13.858,13.856-13.858c7.637,0,13.855,6.215,13.857,13.853l-0.119,24.238l0.068,2.581
			c0.513,7.302,2.111,14.445,4.753,21.228c2.429,6.233,5.696,12.09,9.729,17.432c-10.198,8.386-22.977,12.979-36.205,12.979
			c-11.603,0-22.765-3.468-32.313-10.041l-2.016-1.864c-5.34-4.939-5.674-13.301-0.737-18.642c2.487-2.695,6.023-4.242,9.692-4.242
			c3.327,0,6.505,1.248,8.947,3.506c3.736,3.45,5.137,8.625,3.66,13.512l-0.391,1.292l0.994,0.919l8.58,7.927l2.049,1.892
			l1.318-2.465c6.087-11.434,3.702-25.554-5.805-34.338c-5.28-4.883-12.154-7.574-19.35-7.574c-7.936,0-15.571,3.342-20.959,9.166
			c-10.667,11.555-9.953,29.632,1.594,40.305l0.094,0.088l0.003,0.003l3.655,3.012c12.063,8.359,25.588,12.769,39.234,12.769
			c0.603,0,1.205-0.009,1.81-0.021c30.717-0.882,45.99-15.447,59.462-28.296c10.593-10.101,19.738-18.823,34.601-19.943
			c0,0,0.518-0.098,0.625-0.125c15.335,1.257,26.497,11.302,38.304,21.932c13.467,12.113,27.386,24.642,48.918,26.058
			c2.051,0.195,4.321,0.375,6.643,0.375c14.759,0,28.886-4.402,40.978-12.747l3.76-3.103c11.546-10.673,12.256-28.756,1.586-40.305
			c-5.38-5.824-13.02-9.166-20.956-9.166c-7.194,0-14.065,2.691-19.351,7.574c-9.507,8.787-11.893,22.904-5.801,34.338l1.316,2.465
			l11.622-10.737l-0.392-1.292c-1.476-4.887-0.075-10.062,3.659-13.512c2.443-2.258,5.622-3.506,8.949-3.506
			c3.67,0,7.204,1.547,9.692,4.242c4.923,5.329,4.604,13.665-0.698,18.604l-0.039,0.037l-1.96,1.813l-0.063,0.055
			c-9.548,6.57-20.71,10.038-32.304,10.038c-13.387,0-26.28-4.694-36.538-13.257c3.945-5.275,7.143-11.033,9.523-17.154
			c2.642-6.779,4.241-13.923,4.752-21.228l-0.049-2.307v-24.513c0.004-7.638,6.22-13.853,13.856-13.853
			c7.641,0,13.856,6.218,13.856,13.858c0,5.334-2.997,10.111-7.817,12.449c-1.914,0.934-3.946,1.403-6.039,1.403
			c-1.307,0-2.62-0.189-3.908-0.567l-2.761-0.812v14.63v1.828l1.803,0.3c1.748,0.286,3.34,0.433,4.866,0.433
			c2.466,0,4.997-0.339,7.528-1.001c13.034-3.417,22.136-15.204,22.136-28.663c0-16.357-13.306-29.667-29.664-29.667
			c-16.352,0-29.66,13.307-29.663,29.661v26.509c-1.018,9.791-4.083,19.055-9.13,27.573c-1.264-2.084-2.438-4.287-3.493-6.548
			c-4.25-9.107-6.404-18.844-6.404-28.929c0-9.721,2.01-19.137,5.98-27.985c1.131-1.971,2.041-3.789,2.776-5.563
			c2.222-5.312,3.483-11.045,3.75-17.034c0.012-0.241,0.112-1.739,0.112-2.249c0-9.355-2.645-18.524-7.653-26.512
			c-9.234-14.737-25.084-23.537-42.393-23.537C238.419,409.889,222.567,418.688,213.331,433.426"/>
	</defs>
	<clipPath id="SVGID_2_">
		<use xlink:href="#SVGID_1_"  overflow="visible"/>
	</clipPath>
	
		<linearGradient id="SVGID_3_" gradientUnits="userSpaceOnUse" x1="-164.0815" y1="551.3477" x2="-160.9572" y2="551.3477" gradientTransform="matrix(94.8593 0 0 -94.8593 15672.5 52799.1875)">
		<stop  offset="0" style="stop-color:#F8B133"/>
		<stop  offset="1" style="stop-color:#E84E1B"/>
	</linearGradient>
	<rect x="104.699" y="409.889" clip-path="url(#SVGID_2_)" fill="url(#SVGID_3_)" width="302.603" height="177.955"/>
</g>
<g>
	<path fill="#1D1D1B" d="M243.291,495.954c0,2.59-2.1,4.687-4.69,4.687c-2.59,0-4.69-2.097-4.69-4.687c0-2.591,2.1-4.689,4.69-4.689
		C241.191,491.265,243.291,493.363,243.291,495.954"/>
	<path fill="#1D1D1B" d="M278.09,495.954c0,2.59-2.1,4.687-4.688,4.687c-2.59,0-4.688-2.097-4.688-4.687
		c0-2.591,2.099-4.689,4.688-4.689C275.99,491.265,278.09,493.363,278.09,495.954"/>
	<polygon fill="#FFFFFF" points="257.869,60.896 257.869,126.225 249.48,126.225 249.48,81.14 225.206,105.42 200.923,81.14 
		200.923,126.225 192.543,126.225 192.543,60.896 225.206,93.559 	"/>
	<polygon fill="#FFFFFF" points="290.545,69.283 290.545,89.367 311.496,89.367 311.496,97.752 290.545,97.752 290.545,117.837 
		318.262,117.837 318.262,126.227 282.163,126.227 282.163,60.896 318.262,60.896 318.262,69.283 	"/>
	<path fill="#1D70B7" d="M166.611,96.161c-4.393,6.288-9.624,9.473-15.551,9.473c-0.225,0-0.447-0.007-0.671-0.01
		c-5.093-0.209-9.737-2.703-13.824-4.904c-8.047-4.337-10.548-5.315-14.581,0.837l-8.659-5.681c4.097-6.24,9.156-9.257,15.039-8.995
		c4.743,0.218,8.999,2.51,13.107,4.721c3.259,1.756,6.625,3.564,9.333,3.68c1.708,0.072,4.098-0.447,7.318-5.049L166.611,96.161z"/>
	<path fill="#1D70B7" d="M398.673,96.161c-4.39,6.288-9.624,9.473-15.546,9.473c-0.229,0-0.449-0.007-0.678-0.01
		c-5.088-0.209-9.732-2.703-13.822-4.904c-8.045-4.337-10.547-5.315-14.578,0.837l-8.658-5.681c4.095-6.24,9.153-9.257,15.035-8.995
		c4.745,0.218,8.998,2.51,13.108,4.721c3.263,1.756,6.628,3.564,9.334,3.68c1.712,0.072,4.101-0.447,7.32-5.049L398.673,96.161z"/>
	<path fill="#FFFFFF" d="M162.289,174.264c0,8.743-3.407,16.962-9.589,23.14c-6.18,6.183-14.398,9.588-23.139,9.588h-16.232V141.53
		h16.232c8.741,0,16.959,3.405,23.139,9.588C158.881,157.301,162.289,165.515,162.289,174.264 M153.898,174.264
		c0-13.425-10.917-24.347-24.338-24.347h-7.853v48.689h7.853C142.982,198.606,153.898,187.687,153.898,174.264"/>
	<rect x="190.347" y="141.665" fill="#FFFFFF" width="8.384" height="65.329"/>
	<polygon fill="#FFFFFF" points="268.259,141.665 268.259,150.055 251.699,150.055 251.699,206.993 243.313,206.993 
		243.313,150.055 226.752,150.055 226.752,141.665 	"/>
	<polygon fill="#FFFFFF" points="300.948,150.053 300.948,170.136 321.898,170.136 321.898,178.522 300.948,178.522 
		300.948,198.606 328.667,198.606 328.667,206.992 292.567,206.992 292.567,141.665 328.667,141.665 328.667,150.053 	"/>
	<path fill="#FFFFFF" d="M383.03,178.029l14.446,28.897h-9.379l-14.23-28.474h-12.517v28.54h-8.381v-65.327h26.112
		c10.157,0,18.395,8.233,18.395,18.395C397.477,168.864,391.29,176.222,383.03,178.029 M379.082,170.07
		c5.516,0,10.008-4.49,10.008-10.01c0-5.521-4.492-10.008-10.008-10.008h-17.731v20.018H379.082z"/>
	<path fill="#FFFFFF" d="M158.191,258.797l14.447,28.897h-9.38l-14.232-28.474H136.51v28.543h-8.38v-65.33h26.111
		c10.157,0,18.397,8.233,18.397,18.397C172.638,249.632,166.448,256.991,158.191,258.797 M154.241,250.838
		c5.518,0,10.007-4.489,10.007-10.006c0-5.521-4.489-10.011-10.007-10.011H136.51v20.018H154.241z"/>
	<path fill="#FFFFFF" d="M248.21,287.763h-9.101l-6.862-16.298h-23.093l-6.861,16.298h-9.099l27.508-65.327L248.21,287.763z
		 M228.719,263.08l-8.015-19.038l-8.017,19.038H228.719z"/>
	<polygon fill="#FFFFFF" points="322.276,222.434 322.276,287.764 277.195,242.679 277.195,287.764 268.814,287.764 
		268.814,222.434 313.896,267.518 313.896,222.434 	"/>
	<polygon fill="#FFFFFF" points="354.959,230.821 354.959,250.905 375.911,250.905 375.911,259.292 354.959,259.292 
		354.959,279.375 382.675,279.375 382.675,287.764 346.576,287.764 346.576,222.436 382.675,222.436 382.675,230.821 	"/>
	<path fill="#FFFFFF" d="M282.911,371.195h-9.102l-6.863-16.297h-23.094l-6.862,16.297h-9.096l27.506-65.325L282.911,371.195z
		 M263.414,346.512l-8.013-19.037l-8.016,19.037H263.414z"/>
</g>
<g>
	<defs>
		<path id="SVGID_4_" d="M313.501,300.825c-0.454,0.041-0.841,0.076-1.161,0.117c-0.318,0.039-0.696,0.115-1.136,0.217
			c-1.47,0.5-2.346,2.108-3.378,2.867c-0.319,0.229-0.585,0.29-0.789,0.192c-0.498-0.104-0.941-0.109-1.338-0.012
			c-0.396,0.091-0.824,0.161-1.28,0.194c-0.92,0.073-1.574,0.451-1.973,1.136c-0.212,0.274-0.426,0.55-0.64,0.821
			c-0.217,0.271-0.385,0.533-0.51,0.786c-0.14,0.18-0.289,0.367-0.43,0.547c-0.147,0.186-0.348,0.311-0.61,0.369
			c-0.5,0.265-0.894,0.563-1.185,0.893c-0.299,0.331-0.543,0.667-0.74,1.015c-0.471,0.771-0.892,1.538-1.27,2.294
			c-0.379,0.762-0.813,1.495-1.294,2.197c-0.522,0.938-1.021,1.891-1.486,2.853c-0.47,0.968-0.967,1.915-1.486,2.854
			c-0.359,0.829-0.731,1.617-1.109,2.373c-0.383,0.759-0.712,1.537-0.979,2.344c-0.675,1.861-1.313,3.68-1.913,5.449
			c-0.604,1.776-1.111,3.558-1.518,5.358c-0.207,0.717-0.379,1.446-0.528,2.179c-0.152,0.744-0.328,1.464-0.529,2.181
			c-0.208,1.087-0.303,2.164-0.273,3.225c0.02,1.072,0.017,2.127-0.014,3.168c-0.046,0.977-0.077,1.923-0.086,2.851
			c-0.016,0.929,0.002,1.87,0.04,2.818c0.079,1.093,0.146,2.166,0.213,3.223c0.067,1.062,0.141,2.13,0.214,3.225
			c0.109,0.857,0.265,1.689,0.458,2.496c0.189,0.809,0.47,1.57,0.829,2.297c0.174,0.33,0.318,0.63,0.424,0.897
			c0.114,0.272,0.169,0.593,0.163,0.962c0.049,0.582,0.164,1.181,0.358,1.8c0.2,0.619,0.315,1.224,0.357,1.801
			c0.223,0.909,0.549,1.684,0.98,2.314c0.134,0.565,0.351,0.88,0.646,0.959c0.334,0.213,0.574,0.434,0.721,0.659
			c0.149,0.226,0.305,0.5,0.479,0.829c0.327,0.587,0.63,1.166,0.903,1.722c0.275,0.562,0.654,1.082,1.142,1.563
			c0.277,0.378,0.44,0.667,0.495,0.879c0.269,0.747,0.707,1.422,1.321,2.013c0.256,0.309,0.615,0.52,1.058,0.636
			c0.449,0.109,0.916,0.226,1.406,0.326c0.41-0.241,0.727-0.285,0.956-0.114c0.226,0.166,0.455,0.334,0.681,0.502
			c0.5,0.543,1.262,0.806,2.284,0.78c0.473,0.037,0.969,0.048,1.477,0.037c0.511-0.012,1.012,0.036,1.505,0.141
			c0.192,0.027,0.511-0.013,0.953-0.122c0.17-0.037,0.338-0.062,0.479-0.06c0.14,0.004,0.292-0.011,0.473-0.054
			c0.738-0.033,1.522-0.071,2.346-0.12c0.837-0.054,1.627-0.24,2.387-0.566c1.025-0.396,2.164-0.799,3.421-1.209
			c1.254-0.414,2.366-0.921,3.344-1.525c1.153-0.646,2.111-1.409,2.881-2.294c0.765-0.888,1.708-1.727,2.831-2.509
			c0.314-0.225,0.606-0.463,0.876-0.71c0.266-0.25,0.552-0.522,0.854-0.818c0.214-0.271,0.315-0.448,0.297-0.512
			c0.144-0.187,0.244-0.355,0.293-0.517c0.058-0.165,0.158-0.329,0.302-0.517c0.299-0.295,0.573-0.618,0.817-0.973
			c0.24-0.354,0.406-0.727,0.504-1.116c0.122-0.25,0.292-0.514,0.51-0.79c0.213-0.272,0.366-0.604,0.456-0.998l0.108-0.134
			l0.109-0.139c0.144-0.179,0.283-0.362,0.427-0.545c0.144-0.185,0.101-0.357-0.125-0.521c0.144-0.188,0.224-0.334,0.245-0.449
			c0.015-0.115,0.101-0.269,0.243-0.451c0.463-0.399,0.711-0.72,0.754-0.959c0.066-0.292,0.259-0.518,0.455-0.737
			c-0.044-0.229-0.145-0.435-0.193-0.663c1.087-2.235,1.64-4.509,1.111-6.895c-0.184-0.828-0.769-0.895-1.383-0.603
			c-0.942-0.908-3.133,1.172-2.764,2.405c0.019,0.052-0.003,0.104,0.019,0.159c-0.339,0.661-0.535,1.349-0.741,2.031
			c-0.974,1.242-1.816,2.4-2.516,3.47c-0.716,1.096-1.51,2.176-2.377,3.23c-0.862,1.063-1.849,2.039-2.938,2.924
			c-1.102,0.896-2.438,1.709-4.027,2.465c-0.764,0.33-1.525,0.659-2.286,0.991c-0.759,0.327-1.603,0.532-2.514,0.602
			c-0.442,0.104-0.866,0.097-1.272-0.031c-0.791-0.179-1.459-0.463-2.02-0.848c-0.563-0.381-1.184-0.675-1.89-0.878l-0.365-0.354
			c-0.152-0.262-0.31-0.52-0.465-0.774c-0.154-0.263-0.362-0.544-0.622-0.852c-0.278-0.378-0.518-0.781-0.71-1.219
			c-0.198-0.432-0.446-0.872-0.739-1.316c-0.031-0.141-0.088-0.275-0.164-0.403c-0.079-0.134-0.135-0.269-0.171-0.403
			c-0.068-1.467-0.431-2.788-1.083-3.96l-0.125-0.527c-0.049-0.577-0.087-1.126-0.113-1.633c-0.03-0.513-0.106-1.013-0.224-1.502
			c-0.081-0.354-0.177-0.548-0.279-0.604c-0.248-0.23-0.373-0.48-0.392-0.731c-0.012-0.256-0.094-0.513-0.254-0.774
			c-0.171-0.326-0.22-0.635-0.146-0.909c0.076-0.274,0.024-0.577-0.146-0.91c-0.139-0.186-0.212-0.39-0.219-0.609
			c-0.003-0.223-0.034-0.44-0.08-0.647c0.053-0.158,0.046-0.381-0.021-0.658c-0.007-0.813-0.024-1.661-0.049-2.539
			c-0.024-0.885-0.04-1.727-0.046-2.543c0.061-1.275,0.202-2.548,0.414-3.815c0.209-1.275,0.391-2.554,0.543-3.851
			c0.136-0.623,0.285-1.251,0.465-1.887c0.175-0.628,0.316-1.293,0.434-1.988c-0.104-0.418-0.089-0.751,0.033-1.009
			c0.187-0.413,0.339-0.835,0.467-1.275c0.128-0.438,0.283-0.862,0.464-1.275c0.717-2.464,1.636-5.053,2.764-7.761
			c0.236-0.573,0.446-1.147,0.639-1.713c0.191-0.558,0.448-1.137,0.778-1.735c0.302-0.666,0.573-1.284,0.808-1.861
			c0.239-0.567,0.52-1.159,0.843-1.752c0.262-0.434,0.525-0.903,0.783-1.409c0.25-0.5,0.511-0.971,0.778-1.403
			c0.142-0.186,0.242-0.372,0.288-0.57c0.046-0.199,0.139-0.385,0.282-0.564c0.604-0.592,1.028-1.172,1.262-1.748
			c0.128-0.255,0.305-0.498,0.524-0.736c0.223-0.234,0.344-0.506,0.365-0.805c0.114-0.697,0.483-1.3,1.104-1.819
			c0.392-0.316,0.605-0.592,0.644-0.821c0.413-0.612,0.935-0.966,1.572-1.042c0.439-0.038,0.794,0.149,1.11,0.332
			c0.406,0.244,0.747,0.481,1.122,0.244c1.224-0.788,4.02,0.03,4.432,0.599c0.417,0.566,4.382,1.268,4.545,1.967
			c0.108,1.236,0.258,2.438,0.446,3.613c0.187,1.175,0.238,2.364,0.152,3.567c-0.106,1.507-0.194,2.971-0.277,4.396
			c-0.077,1.425-0.46,2.847-1.144,4.271c-0.149,0.18-0.214,0.383-0.209,0.602c0.007,0.22-0.052,0.455-0.174,0.708
			c-0.081,0.463-0.094,0.797-0.046,1.011c-0.041,0.601,0.248,0.826,0.868,0.676c0.351-0.081,0.687-0.144,1.006-0.179
			c0.313-0.038,0.652-0.104,1.001-0.187c0.709-0.171,1.212-0.406,1.518-0.695l1.821-2.325c0.136-0.181,0.226-0.309,0.255-0.394
			c0.024-0.079,0.111-0.207,0.257-0.394c0.388-0.314,0.671-0.699,0.84-1.148c0.177-0.448,0.304-0.902,0.378-1.362
			c0.125-0.623,0.235-1.259,0.312-1.904c0.076-0.646,0.14-1.275,0.183-1.881c0.359-2.004,0.178-3.924-0.537-5.748
			c-0.207-0.466-0.408-0.921-0.604-1.352c-0.198-0.436-0.353-0.896-0.47-1.388l-0.289-1.205c-0.095-0.386-1.139-1.327-1.324-1.727
			c-0.277-0.38-0.431-0.636-0.465-0.775c-0.201-0.839-0.634-1.663-1.293-2.466c-0.625-0.666-4.872-2.768-5.696-3.088
			c-0.177,0.045-0.369,0.016-0.577-0.082c-0.967-0.141-1.767-0.354-2.397-0.647c-0.163-0.085-0.383-0.122-0.639-0.122
			C317.762,299.275,314.671,300.68,313.501,300.825"/>
	</defs>
	<clipPath id="SVGID_5_">
		<use xlink:href="#SVGID_4_"  overflow="visible"/>
	</clipPath>
	
		<linearGradient id="SVGID_6_" gradientUnits="userSpaceOnUse" x1="-161.811" y1="544.5977" x2="-158.686" y2="544.5977" gradientTransform="matrix(15.3559 0 0 -15.3559 2770.5703 8703.4688)">
		<stop  offset="0" style="stop-color:#F8B133"/>
		<stop  offset="1" style="stop-color:#E84E1B"/>
	</linearGradient>
	<rect x="285.83" y="299.275" clip-path="url(#SVGID_5_)" fill="url(#SVGID_6_)" width="48.169" height="82.808"/>
</g>
<g>
	<defs>
		<path id="SVGID_7_" d="M358.598,284.574c-0.963,0.866-1.552,1.632-1.766,2.303c-0.32,0.767-0.646,1.465-0.964,2.085
			c-0.323,0.624-0.645,1.321-0.968,2.083c-1.067,2.21-1.923,4.44-2.565,6.693c-0.644,2.252-1.236,4.528-1.767,6.829
			c-0.434,1.631-0.806,3.282-1.132,4.96c-0.314,1.679-0.641,3.336-0.959,4.967c-0.431,1.723-0.778,3.425-1.043,5.103
			c-0.269,1.672-0.514,3.38-0.723,5.108c-0.108,1.053-0.241,2.081-0.403,3.09c-0.162,1.004-0.351,2.036-0.563,3.092
			c-0.22,1.346-0.48,2.639-0.801,3.881c-0.324,1.248-0.648,2.545-0.965,3.884c-0.217,1.06-0.403,2.085-0.562,3.092
			c-0.165,1.006-0.402,2.038-0.726,3.094c-0.321,1.058-0.642,2.135-0.962,3.234c-0.323,1.104-0.588,2.233-0.806,3.38
			c-0.316,1.063-0.561,2.069-0.717,3.021c-0.167,0.962-0.354,1.969-0.564,3.021l-2.896,12.943c-0.212,1.248-0.453,2.496-0.723,3.739
			c-0.262,1.245-0.504,2.54-0.724,3.883c-0.106,0.579-0.079,1.153,0.076,1.729c0.171,0.571,0.568,1.05,1.213,1.437
			c0.217,0.096,0.399,0.19,0.561,0.288c0.162,0.091,0.242,0.285,0.242,0.576h0.157c0.22-0.101,0.245-0.192,0.083-0.291
			c-0.164-0.098-0.132-0.194,0.08-0.285c0.216,0.188,0.271,0.332,0.163,0.433c-0.106,0.092-0.057,0.238,0.157,0.434v-0.72
			c0-0.577,0.268-1.009,0.806-1.3l0.157-0.141c0.647-0.574,1.181-0.525,1.612,0.141c0.101,0,0.21-0.046,0.316-0.141
			c0-0.098-0.024-0.196-0.08-0.287c-0.054-0.098-0.026-0.238,0.08-0.435c0.326-0.193,0.696-0.667,1.126-1.438
			c0.104,0.098,0.135,0.188,0.076,0.289c-0.052,0.095,0.028,0.144,0.244,0.144c0.104,0.095,0.135,0.189,0.083,0.287
			c-0.059,0.097,0.021,0.141,0.238,0.141v-0.141c0.323-0.573,0.695-0.674,1.126-0.287c0.103,0.287,0.269,0.339,0.478,0.146
			c0.111-0.195,0.221-0.312,0.324-0.359c0.106-0.053,0.055-0.174-0.158-0.36l0.158-0.294c0.43,0,0.589-0.191,0.481-0.569
			c-0.108-0.095,0-0.144,0.323-0.144l0.16,0.144c-0.217-0.29-0.16-0.48,0.16-0.578c0.321-0.094,0.376-0.285,0.163-0.572
			c0-0.098,0.104-0.342,0.323-0.72c0.204-0.195,0.316-0.361,0.316-0.504c0-0.144,0.055-0.314,0.163-0.505
			c0.209-0.48,0.372-0.887,0.479-1.219c0.109-0.339,0.269-0.702,0.484-1.081c0.211-0.289,0.372-0.577,0.483-0.866
			c0.104-0.287,0.268-0.622,0.481-1.004c0.428-1.057,0.748-2.139,0.968-3.235c0.21-1.1,0.476-2.181,0.799-3.236
			c0.211-0.866,0.428-1.745,0.641-2.661c0.217-0.908,0.43-1.801,0.645-2.66c0.212-1.056,0.479-2.108,0.802-3.165
			c0.32-1.052,0.642-2.107,0.965-3.163c0.106-0.573,0.323-1.104,0.64-1.58c0.323-0.48,0.647-1.01,0.968-1.587l1.446,2.594
			c0.208,0.476,0.455,0.979,0.717,1.51c0.268,0.524,0.513,1.027,0.729,1.504c0.314,0.774,0.72,1.539,1.202,2.305
			c0.485,0.768,0.936,1.583,1.366,2.442c0.101,0.486,0.483,1.012,1.126,1.585c0.747,0.863,1.446,1.918,2.088,3.164
			c0.105,0.576,0.372,1.201,0.8,1.873c0.859,1.629,1.824,3.137,2.898,4.527c1.067,1.387,2.138,2.757,3.207,4.099
			c0,0.098,0.105,0.149,0.326,0.149c0.641,0.089,1.175,0.52,1.604,1.288c0.425,0.573,0.803,0.912,1.123,1.007
			c0.212,0,0.379,0.049,0.489,0.146c0.101,0.092,0.262,0.188,0.477,0.283c0.212-0.573,0.375-0.954,0.483-1.145h0.318
			c0.324,0.281,0.481,0.232,0.481-0.146c0-0.385-0.049-0.622-0.157-0.72c-0.217-0.095-0.217-0.241,0-0.435
			c0.212,0,0.323,0.049,0.323,0.146c0.21,0.193,0.396,0.288,0.561,0.288c0.159,0,0.294,0.098,0.406,0.286
			c0.104-0.286,0.18-0.555,0.235-0.79c0.055-0.241,0.185-0.456,0.405-0.646c0.207,0,0.4,0.076,0.559,0.215
			c0.162,0.142,0.351,0.221,0.564,0.221c0-0.488,0.052-0.821,0.158-1.013c0.104-0.095,0.187-0.073,0.241,0.073
			c0.058,0.143,0.187,0.165,0.396,0.073c0.221-0.671,0.269-1.203,0.168-1.587c-0.431-0.86-0.912-1.702-1.449-2.515
			c-0.54-0.813-1.067-1.607-1.605-2.37c-0.539-0.671-1.021-1.318-1.445-1.94c-0.432-0.626-0.858-1.319-1.288-2.091
			c-0.109-0.188-0.237-0.359-0.399-0.504c-0.158-0.139-0.242-0.355-0.242-0.643c-0.105-0.388-0.209-0.744-0.319-1.081
			c-0.11-0.335-0.217-0.694-0.323-1.079c-0.212-0.574-0.428-1.173-0.641-1.798c-0.214-0.62-0.54-1.224-0.966-1.798
			c-0.215-0.38-0.43-0.74-0.64-1.079c-0.217-0.335-0.43-0.689-0.644-1.074c-0.427-0.672-0.86-1.3-1.287-1.871
			c-0.428-0.576-0.858-1.102-1.286-1.586c-0.646-0.764-1.074-1.389-1.283-1.87c-0.431-1.05-0.857-2.032-1.281-2.945
			c-0.432-0.908-0.862-1.846-1.291-2.803c-0.534-1.246-1.018-2.494-1.446-3.741c-0.427-1.245-0.961-2.398-1.605-3.455
			c-0.214-0.188-0.104-0.38,0.324-0.573c0.854-0.573,1.686-1.15,2.488-1.728c0.804-0.573,1.53-1.24,2.173-2.013
			c0.422-0.479,0.848-0.91,1.275-1.293c0.434-0.382,0.916-0.716,1.452-1.007c0.428-0.19,0.77-0.379,1.044-0.574
			c0.266-0.19,0.565-0.381,0.886-0.573c1.17-0.864,2.3-1.752,3.37-2.662c1.071-0.911,2.195-1.891,3.375-2.946l4.34-3.888
			c1.604-1.343,2.944-2.587,4.016-3.737c0.637-0.674,1.257-1.294,1.849-1.87c0.586-0.577,1.202-1.147,1.849-1.728l4.815-3.882
			c0.856-0.674,1.69-1.317,2.489-1.939c0.806-0.622,1.638-1.227,2.492-1.801c1.179-0.764,2.249-1.581,3.214-2.443
			c0.964-0.864,1.87-1.871,2.732-3.023c-0.108-0.093-0.19-0.144-0.243-0.144c-0.058,0-0.137-0.047-0.24-0.143
			c0.212-0.479,0.483-0.766,0.799-0.861c0.109-0.096,0.165-0.19,0.165-0.288c-0.106-0.191-0.165-0.356-0.165-0.505
			c0-0.143-0.106-0.265-0.315-0.357c-0.223-0.096-0.483,0-0.804,0.282c0,0.197-0.059,0.293-0.159,0.293
			c-0.106,0-0.214,0.046-0.323,0.144c0-0.379,0.217-0.863,0.644-1.438c-0.427-0.189-0.703-0.29-0.803-0.29
			c-0.109,0-0.269,0.101-0.484,0.29l-0.485,0.433c-0.211-0.386-0.16-0.622,0.165-0.723V294.5h-0.325
			c-0.319,0-0.532,0.145-0.64,0.433c-0.217,0.189-0.378,0.236-0.482,0.143c0-0.189,0.08-0.359,0.241-0.503
			c0.162-0.143,0.349-0.31,0.562-0.503c-0.213-0.191-0.32-0.239-0.32-0.147c0,0.101-0.055,0.147-0.161,0.147
			c0-0.29,0.161-0.578,0.481-0.862c0.857-0.575,1.392-1.104,1.608-1.587c-0.217-0.091-0.375-0.091-0.482,0
			c-0.857,0.578-1.718,1.13-2.572,1.655c-0.854,0.527-1.711,1.032-2.568,1.51c-0.857,0.483-1.688,0.961-2.496,1.436
			c-0.797,0.486-1.63,0.964-2.484,1.443c-1.394,0.771-2.679,1.532-3.854,2.299c-1.182,0.771-2.361,1.681-3.539,2.732
			c-1.178,0.962-2.304,1.921-3.372,2.878c-1.073,0.965-2.197,1.966-3.374,3.019l-7.711,6.91c-0.644,0.567-1.261,1.171-1.852,1.794
			c-0.586,0.623-1.199,1.172-1.846,1.65c-0.858,0.675-1.661,1.347-2.404,2.018c-0.755,0.672-1.561,1.291-2.417,1.867
			c-0.427,0.385-0.852,0.629-1.281,0.72c0.104-0.477,0.161-1.146,0.161-2.013c0-1.245,0.425-2.398,1.281-3.454
			c0.323-0.477,0.646-0.91,0.965-1.291c0.323-0.381,0.585-0.863,0.805-1.441c0.214-0.667,0.486-1.313,0.802-1.942
			c0.327-0.622,0.535-1.27,0.646-1.94c0.424-2.399,0.75-4.843,0.957-7.335c0.107-1.057,0.245-2.13,0.41-3.235
			c0.161-1.099,0.454-2.179,0.878-3.234c0.536-1.343,0.645-2.826,0.327-4.457c-0.218-0.575-0.379-1.178-0.482-1.8
			c-0.11-0.621-0.165-1.224-0.165-1.799c-0.321-1.916-1.34-3.065-3.054-3.449c-0.645-0.191-1.015-0.483-1.123-0.863l-0.642-0.575
			c-0.323-0.29-0.751-0.336-1.284-0.146c-0.109,0.097-0.158,0.097-0.158,0c0-0.09-0.111-0.144-0.323-0.144
			c0.212,0.192,0.265,0.385,0.161,0.575c-0.109,0.192-0.161,0.387-0.161,0.578c0,0.189-0.111,0.286-0.32,0.286
			c-0.324-0.097-0.379-0.239-0.163-0.43c0-0.482,0.056-0.77,0.163-0.866c0.106-0.09,0.052-0.236-0.163-0.432
			c-0.17-0.019-0.329-0.028-0.481-0.028C359.423,284.114,358.94,284.269,358.598,284.574"/>
	</defs>
	<clipPath id="SVGID_8_">
		<use xlink:href="#SVGID_7_"  overflow="visible"/>
	</clipPath>
	
		<linearGradient id="SVGID_9_" gradientUnits="userSpaceOnUse" x1="-160.6646" y1="547.7793" x2="-157.5381" y2="547.7793" gradientTransform="matrix(22.3362 0 0 -22.3362 3923.8281 12568.5469)">
		<stop  offset="0" style="stop-color:#F8B133"/>
		<stop  offset="1" style="stop-color:#E84E1B"/>
	</linearGradient>
	<rect x="335.195" y="284.114" clip-path="url(#SVGID_8_)" fill="url(#SVGID_9_)" width="69.834" height="98.265"/>
</g>
<g>
	<defs>
		<path id="SVGID_10_" d="M196.591,405.184c0.104,0.109,0.157,0.188,0.157,0.244c0,0.049,0.057,0.134,0.168,0.241
			c0.104,0.217,0.214,0.269,0.321,0.161c0.214-0.109,0.214-0.269,0-0.482c-0.144-0.146-0.289-0.216-0.432-0.216
			C196.734,405.132,196.662,405.149,196.591,405.184 M195.621,403.407h0.325c0.099,0,0.159-0.055,0.159-0.159l-0.159-0.161
			C195.73,403.087,195.621,403.194,195.621,403.407 M199.173,401.553c-0.107,0.055-0.107,0.189,0,0.402
			c0.217-0.109,0.324-0.372,0.324-0.807C199.39,401.366,199.28,401.498,199.173,401.553 M200.143,396.148
			c-0.323,0.968-0.595,1.938-0.806,2.905c0.534-0.427,0.936-0.915,1.208-1.452c0.267-0.537,0.51-1.078,0.727-1.614
			c-0.216,0-0.322,0.027-0.322,0.079c0,0.055-0.108,0.082-0.321,0.082c0.212-0.54,0.427-0.998,0.643-1.369
			c0.215-0.38,0.427-0.781,0.646-1.212C201.054,394.321,200.463,395.182,200.143,396.148 M198.525,392.595
			c0,0.216,0.054,0.328,0.164,0.328c0-0.112,0.053-0.219,0.161-0.328l-0.161-0.159L198.525,392.595z M202.726,388.963
			c0,0.058-0.057,0.141-0.166,0.251c0,0.209-0.055,0.396-0.16,0.561c-0.108,0.159-0.214,0.348-0.321,0.562
			c-0.54,0.757-0.809,1.453-0.809,2.1c0.215,0.217,0.325,0.159,0.325-0.163c0.212-0.532,0.457-1.049,0.722-1.533
			c0.271-0.482,0.508-0.995,0.728-1.525c0.218-0.223,0.162-0.385-0.16-0.489C202.776,388.829,202.726,388.911,202.726,388.963
			 M201.111,385.659c0,0.106,0.05,0.161,0.16,0.161l0.162-0.161c0.108-0.108,0.054-0.165-0.162-0.165
			C201.161,385.494,201.111,385.551,201.111,385.659 M201.432,383.642c0,0.053-0.057,0.08-0.162,0.08
			c0.215,0.323,0.162,0.592-0.16,0.804c-0.322,0.215-0.431,0.483-0.322,0.807c0.106-0.213,0.266-0.293,0.482-0.237
			c0.215,0.054,0.27-0.031,0.162-0.245c0-0.213,0.108-0.646,0.322-1.29C201.54,383.56,201.432,383.587,201.432,383.642
			 M208.05,375.007c0.217-0.217,0.269-0.378,0.163-0.488C207.887,374.629,207.831,374.79,208.05,375.007 M191.587,303.99
			c0.144,0.384,0.344,0.734,0.597,1.058c-0.039-0.122-0.101-0.282-0.193-0.493c-0.2-0.431-0.325-0.649-0.376-0.649
			C191.597,303.905,191.587,303.933,191.587,303.99 M207.485,366.207c0.161-0.269,0.297-0.563,0.402-0.886
			c0.11,0.538-0.057,1.129-0.483,1.776C207.293,366.774,207.322,366.479,207.485,366.207 M216.443,344.666l0.157-0.166l0.168-0.157
			c0,0.213-0.057,0.323-0.168,0.323c0,0.105-0.024,0.157-0.08,0.157C216.468,344.823,216.443,344.771,216.443,344.666
			 M222.897,301.729c-0.431,0.435-0.807,0.892-1.128,1.377c-0.323,0.485-0.702,0.994-1.131,1.531
			c-0.541,0.647-0.999,1.346-1.371,2.1c-0.382,0.754-0.725,1.559-1.05,2.42c-0.538,1.403-1.076,2.773-1.617,4.115
			c-0.535,1.347-1.07,2.716-1.608,4.116c-0.324,0.86-0.621,1.776-0.889,2.743c-0.272,0.967-0.569,1.938-0.888,2.905
			c-0.435,1.077-0.862,2.127-1.294,3.151c-0.43,1.02-0.805,2.069-1.128,3.144c-0.969,3.228-2.096,6.453-3.389,9.684
			c-0.432,1.184-0.862,2.393-1.291,3.628c-0.432,1.242-0.806,2.45-1.127,3.634c-0.219,0.861-0.486,1.672-0.811,2.422
			c-0.321,0.751-0.646,1.563-0.968,2.421c0,0.43-0.162,0.647-0.481,0.647c-0.861,0.216-1.671,0.404-2.423,0.564
			c-0.754,0.158-1.56,0.351-2.423,0.561c-1.396,0.217-2.771,0.488-4.114,0.813c-1.351,0.319-2.719,0.591-4.116,0.805
			c-1.077,0.213-2.125,0.428-3.145,0.645c-1.025,0.216-2.019,0.43-2.987,0.649c-0.218,0-0.378,0.023-0.482,0.079
			c-0.109,0.056-0.271,0.024-0.488-0.079c0.216-0.97,0.429-1.94,0.645-2.911c0.215-0.968,0.43-1.879,0.647-2.74
			c0.325-1.613,0.673-3.201,1.049-4.76c0.378-1.562,0.781-3.097,1.208-4.601c0.217-1.184,0.489-2.369,0.81-3.552
			c0.325-1.184,0.59-2.365,0.806-3.552v-0.481c0.217-0.105,0.431-0.513,0.647-1.212c0.212-0.699,0.399-1.455,0.565-2.255
			c0.16-0.813,0.322-1.618,0.484-2.426c0.164-0.809,0.298-1.37,0.403-1.693c0.326-0.86,0.646-1.776,0.969-2.747
			c0.322-0.963,0.646-1.937,0.968-2.903c0.218-0.648,0.375-1.185,0.486-1.614c0.102-0.54,0.18-1.047,0.239-1.529
			c0.054-0.487,0.188-1.001,0.405-1.537c0.322-0.751,0.487-1.563,0.487-2.423c0.106-0.972,0.128-1.935,0.078-2.901
			c-0.057-0.969,0.081-1.883,0.401-2.749c0-0.422-0.161-0.806-0.479-1.126c-0.478-0.296-0.872-0.645-1.181-1.042
			c0.062,0.226,0.024,0.306-0.113,0.236c-0.43-0.32-0.862-0.619-1.291-0.889c-0.431-0.269-0.969-0.405-1.614-0.405
			c-0.107,0-0.191-0.021-0.242-0.076c-0.057-0.055-0.133-0.086-0.244-0.086c-0.538-0.104-1.073,0-1.613,0.323
			c-2.371,1.404-4.092,3.447-5.167,6.131c-0.429,1.187-0.781,2.426-1.046,3.712c-0.271,1.295-0.565,2.532-0.89,3.718
			c-0.217,1.183-0.399,2.284-0.565,3.307c-0.159,1.02-0.401,2.124-0.727,3.307c-0.54,1.618-1.017,3.257-1.449,4.925
			c-0.431,1.669-0.917,3.363-1.455,5.081c-0.428,1.293-0.862,2.585-1.291,3.872c-0.429,1.293-0.803,2.643-1.127,4.04l-1.937,6.779
			c-0.429,1.722-0.811,3.412-1.13,5.081c-0.323,1.668-0.701,3.365-1.13,5.083c0,0.543-0.271,0.809-0.806,0.809
			c-0.756,0.217-1.511,0.399-2.259,0.562c-0.753,0.165-1.559,0.354-2.421,0.569c-0.646,0.108-1.318,0.242-2.019,0.407
			c-0.7,0.158-1.374,0.399-2.017,0.719c-0.538,0.218-1.073,0.514-1.614,0.892c-0.54,0.378-1.021,0.829-1.451,1.37
			c-0.429,0.647-0.889,1.267-1.375,1.857c-0.485,0.593-0.992,1.209-1.532,1.855c-0.215,0.544-0.347,0.992-0.405,1.37
			c-0.051,0.382-0.132,0.785-0.238,1.212c0,0.323,0.159,0.485,0.48,0.485c0.431,0,0.647,0.269,0.647,0.805
			c0.109,0.107,0.186,0.083,0.243-0.076c0.054-0.167,0.184-0.134,0.4,0.076c0.324,0.438,0.704,0.438,1.131,0
			c0.11-0.106,0.218-0.106,0.324,0c0.216,0.321,0.348,0.489,0.403,0.489h0.399c0.647-0.107,1.292-0.438,1.938-0.974
			c0.434-0.215,0.865-0.372,1.291-0.482c0.433-0.107,0.918-0.269,1.456-0.482c1.076-0.213,1.884-0.433,2.417-0.647
			c1.079-0.536,2.1-0.808,3.071-0.808v0.323c-0.54,2.151-1.026,4.305-1.458,6.454c-0.426,2.16-0.803,4.308-1.128,6.462
			c-0.214,1.178-0.402,2.392-0.563,3.625c-0.167,1.241-0.35,2.45-0.566,3.631c-0.325,1.617-0.484,3.18-0.484,4.681
			c-0.107,0.757-0.214,1.482-0.322,2.181c-0.106,0.698-0.106,1.48,0,2.341c0,1.182,0.27,2.1,0.806,2.743
			c0.322,0.536,0.703,0.992,1.129,1.37c0.431,0.379,0.808,0.833,1.128,1.376c0.327,0.534,0.646,0.589,0.972,0.162
			c0.211,0.214,0.265,0.372,0.161,0.48c-0.108,0.108-0.057,0.215,0.161,0.324c0.215-0.216,0.429-0.433,0.647-0.647
			c0.212-0.216,0.534-0.268,0.969-0.157c0.427,0,0.644-0.162,0.644-0.488c0-0.217,0.105-0.323,0.325-0.323
			c0.215-0.214,0.373-0.432,0.483-0.645c0.107-0.216,0.266-0.43,0.481-0.644c0.216-0.757,0.489-1.397,0.811-1.935
			c0.536-0.866,1.049-1.751,1.53-2.666c0.488-0.913,0.834-1.801,1.054-2.661c0.32-0.97,0.562-1.965,0.725-2.99
			c0.16-1.019,0.347-2.018,0.565-2.978c0.322-1.404,0.59-2.805,0.806-4.205c0.213-1.397,0.488-2.795,0.806-4.195
			c0.217-0.968,0.432-1.935,0.647-2.908c0.215-0.964,0.482-1.873,0.809-2.739c0.536-1.294,0.938-2.578,1.21-3.872
			c0.264-1.292,0.505-2.581,0.725-3.875c0.105-0.534,0.24-0.912,0.402-1.126c0.163-0.221,0.566-0.326,1.209-0.326
			c0.754-0.107,1.479-0.211,2.18-0.322c0.697-0.108,1.425-0.268,2.179-0.483c0.862-0.217,1.774-0.379,2.743-0.486
			c0.968-0.105,1.884-0.268,2.746-0.481c0.532-0.221,1.05-0.354,1.532-0.405c0.485-0.052,0.993-0.188,1.534-0.403
			c0.753-0.211,1.479-0.351,2.181-0.405c0.698-0.056,1.425-0.189,2.178-0.4c0.107,0.32,0.107,0.537,0,0.646
			c-0.753,1.936-1.429,3.896-2.018,5.887c-0.59,1.988-1.159,3.954-1.696,5.895c-0.538,2.041-1.104,4.034-1.693,5.968
			c-0.592,1.936-1.209,3.875-1.856,5.813c-0.757,2.584-1.428,5.165-2.016,7.747c-0.597,2.581-1.212,5.164-1.859,7.75
			c-0.215,0.854-0.322,1.501-0.322,1.935c0,0.537,0.056,1.019,0.163,1.449c0.106,0.427,0.431,0.752,0.973,0.973
			c0.424,0.211,1.014,0.8,1.771,1.773c0.216-0.32,0.269-0.672,0.163-1.053c-0.109-0.379-0.055-0.721,0.161-1.047
			c0.427,0.217,0.537,0.484,0.322,0.808c-0.216,0.318-0.11,0.535,0.324,0.645c0.106,0,0.162-0.161,0.162-0.484
			c0.104-0.321,0.161-0.642,0.161-0.968c0-0.32,0.162-0.595,0.483-0.809v-0.483c-0.214-0.212-0.241-0.401-0.081-0.566
			c0.162-0.159,0.244-0.293,0.244-0.402c0.105-0.217,0.185-0.432,0.243-0.647c0.05-0.213,0.185-0.32,0.401-0.32
			c0.537,0.536,0.809,0.888,0.809,1.05c0,0.161-0.272,0.455-0.809,0.887c0.216,0.108,0.376,0.242,0.484,0.404
			c0.109,0.165,0.269,0.293,0.484,0.402c0.431,0.107,0.488,0.323,0.163,0.647c-0.214,0.217-0.297,0.427-0.241,0.646
			c0.051,0.215,0.134,0.428,0.241,0.645c0,0.106,0.024,0.244,0.081,0.403c0.054,0.161,0.187,0.192,0.403,0.082
			c0.428,0,0.539-0.217,0.325-0.646c0-0.323,0.054-0.596,0.162-0.807c0.319-0.322,0.266-0.591-0.162-0.805
			c-0.219-0.221-0.325-0.385-0.325-0.488c0-0.427,0.054-0.695,0.159-0.807c0.22-0.216,0.296-0.429,0.244-0.646
			s-0.078-0.432-0.078-0.647c0.213-0.536,0.319-1.024,0.319-1.452c0-0.427,0.109-0.909,0.324-1.446
			c0.322-0.543,0.433-0.921,0.322-1.136c-0.214,0.215-0.431,0.432-0.646,0.647c-0.216,0.211-0.319,0.488-0.319,0.809
			c0,0.428-0.166,0.644-0.484,0.644v0.324c0,0.214-0.111,0.374-0.325,0.488c0-0.114-0.057-0.171-0.163-0.171
			c0-0.215,0.056-0.372,0.163-0.479c0.111-0.106,0.214-0.162,0.325-0.162c0-0.216-0.057-0.375-0.164-0.481
			c-0.219,0.214-0.54,0.323-0.968,0.323c-0.215-0.86-0.053-1.403,0.485-1.615c-0.216-0.429-0.272-0.752-0.165-0.966
			c0.108-0.326,0.189-0.672,0.245-1.056c0.051-0.372,0.184-0.724,0.402-1.044c0.213-0.217,0.322-0.485,0.322-0.813
			c0.106-0.536,0.216-1.071,0.325-1.609c0.103-0.538,0.213-1.074,0.319-1.617c0.215-0.642,0.432-1.288,0.646-1.935
			c0.214-0.647,0.429-1.288,0.643-1.936c0.217-0.216,0.325-0.484,0.325-0.805c0-0.326,0.107-0.592,0.322-0.812
			c0.324,0.326,0.429,0.595,0.324,0.812c-0.214,0.214-0.377,0.426-0.483,0.641c0,0.11-0.028,0.217-0.082,0.323
			c-0.057,0.107-0.082,0.22-0.082,0.33c-0.108,0.209-0.078,0.372,0.082,0.476c0.161,0.113,0.188,0.274,0.082,0.484
			c-0.106,0.218-0.242,0.326-0.404,0.326c-0.162,0-0.242,0.104-0.242,0.321c-0.322,0.647-0.322,1.132,0,1.451
			c0.214,0.218,0.214,0.432,0,0.65c-0.215,0.751-0.405,1.447-0.567,2.097c-0.157,0.645-0.35,1.346-0.565,2.097l-0.966,1.938
			l-0.324,0.646c0.216,0,0.406,0.076,0.566,0.239c0.16,0.161,0.24-0.027,0.24-0.565l0.166-0.157
			c0.534-0.214,0.856-0.482,0.965-0.809c0.111-0.32,0.271-0.699,0.486-1.126c0.325-0.432,0.374-0.974,0.157-1.617
			c-0.214,0-0.318,0.136-0.318,0.402c0,0.269-0.111,0.399-0.325,0.399c0-0.424,0.081-0.829,0.244-1.208
			c0.16-0.372,0.347-0.778,0.567-1.211c0.214-0.857,0.535-1.611,0.963-2.258c0.432-0.642,0.754-1.397,0.971-2.258
			c0-0.108,0.022-0.189,0.08-0.241c0.052-0.052,0.081-0.135,0.081-0.247c-0.217-0.318-0.242-0.586-0.081-0.803
			c0.16-0.211,0.292-0.431,0.406-0.646c0.102-0.647,0.318-1.236,0.644-1.773c0.214-0.43,0.374-0.833,0.483-1.214
			c0.107-0.372,0.376-0.668,0.807-0.885c-0.216-0.431-0.298-0.699-0.244-0.812c0.053-0.104,0.188-0.373,0.406-0.803
			c0.432-0.647,0.697-1.022,0.806-1.133c0.322-0.319,0.322-0.481,0-0.481c-0.215,0.108-0.321,0-0.321-0.323
			c0.212-0.428,0.4-0.86,0.565-1.291c0.161-0.431,0.343-0.915,0.563-1.453c0.324-0.536,0.618-1.102,0.891-1.692
			c0.265-0.592,0.505-1.215,0.725-1.861c0.106-0.214,0.187-0.427,0.239-0.641c0.057-0.217,0.135-0.428,0.244-0.644
			c0.323-0.438,0.588-1.077,0.806-1.938c0.107-0.539,0.218-1.053,0.331-1.537c0.102-0.482,0.424-0.989,0.961-1.532
			c0,0.646-0.057,1.074-0.16,1.293c-0.216,0.645-0.432,1.397-0.646,2.259c-0.215,0.431-0.215,1.019,0,1.776
			c0.214-0.214,0.35-0.403,0.406-0.567c0.053-0.159,0.181-0.242,0.4-0.242v0.647c-0.22,0.54-0.481,1.076-0.806,1.614
			c-0.322,0.536-0.541,1.074-0.643,1.611c-0.648,0.543-0.974,1.293-0.974,2.264c0,0.213-0.052,0.348-0.158,0.402
			c-0.106,0.058-0.161,0.135-0.161,0.241c-0.217,0.217-0.271,0.379-0.162,0.485c0.216,0.214,0.266,0.378,0.162,0.481
			c-0.109,0.11-0.162,0.221-0.162,0.324c-0.109,0.214-0.222,0.464-0.321,0.726c-0.111,0.269-0.111,0.513,0,0.724v0.488
			c-0.325,0.326-0.598,0.857-0.811,1.614c-0.217,0.323-0.321,0.646-0.321,0.967s-0.109,0.644-0.325,0.971
			c0.216,0.644,0.187,1.287-0.078,1.935c-0.271,0.646-0.51,1.235-0.728,1.778c-0.214,0.431-0.269,0.802-0.159,1.128
			c0.427-0.646,0.748-1.077,0.964-1.286c0.109-0.11,0.166-0.193,0.166-0.251c0-0.052,0.051-0.134,0.16-0.238v-0.164
			c0.215-0.641,0.484-1.261,0.807-1.855c0.325-0.589,0.482-1.263,0.482-2.017c0.108-0.215,0.188-0.405,0.244-0.565
			c0.051-0.164,0.185-0.344,0.399-0.563c0.216-0.217,0.325-0.486,0.325-0.81c0.107-0.536,0.212-1.018,0.323-1.452
			c0.108-0.427,0.265-0.859,0.482-1.287c0.107-0.106,0.164-0.217,0.164-0.329c0.107-1.288,0.537-2.582,1.291-3.869
			c0.105-0.106,0.165-0.215,0.165-0.323c-0.327-0.323-0.384-0.806-0.165-1.455c0.214-0.645,0.378-1.071,0.483-1.288
			c0.11-0.21,0.213-0.405,0.325-0.564c0.106-0.159,0.054-0.348-0.163-0.567c-0.219-0.215-0.219-0.538,0-0.965
			c0.217-0.213,0.374-0.457,0.484-0.727c0.11-0.268,0.265-0.512,0.483-0.729c0.646-1.187,1.24-2.337,1.776-3.466
			c0.538-1.133,1.072-2.285,1.616-3.477c0.537-0.963,0.753-1.823,0.647-2.581l0.321-0.323c0.213,0,0.374-0.024,0.484-0.079
			c0.104-0.055,0.266-0.082,0.483-0.082c1.073-0.215,2.123-0.454,3.148-0.723c1.02-0.269,2.018-0.565,2.987-0.885
			c0.64-0.217,1.262-0.385,1.852-0.488c0.593-0.107,1.156-0.27,1.696-0.485c0.104-0.108,0.216-0.16,0.325-0.16
			c0.101,0,0.212-0.051,0.319-0.16c0.324-0.323,0.672-0.538,1.049-0.647c0.376-0.104,0.782-0.217,1.213-0.323
			c0.425-0.104,0.833-0.215,1.206-0.323c0.381-0.106,0.837-0.27,1.375-0.482h-1.612c-0.969,0.213-1.913,0.428-2.825,0.645
			c-0.915,0.216-1.859,0.268-2.828,0.161c0.325-0.215,0.835-0.43,1.538-0.646c0.693-0.214,1.259-0.323,1.693-0.323
			c0.318-0.104,0.672-0.184,1.048-0.241c0.377-0.053,0.781-0.241,1.208-0.564c-0.863,0.217-1.506,0.323-1.938,0.323
			c0.543-0.323,1.075-0.538,1.62-0.646c0.537-0.107,1.075-0.267,1.612-0.482c-0.537,0-1.075,0.03-1.612,0.082
			c-0.545,0.052-1.131,0.024-1.775-0.082c0.538-0.431,1.101-0.616,1.694-0.563c0.59,0.055,1.1-0.188,1.534-0.731
			c-0.968,0-1.937,0.141-2.905,0.403c-0.97,0.274-1.998,0.353-3.068,0.244c0.646-0.32,1.07-0.647,1.295-0.968
			c-0.436,0-0.974-0.106-1.617-0.321c0.644-0.108,1.262-0.268,1.856-0.487c0.587-0.215,1.212-0.372,1.856-0.486
			c0.534,0,0.915-0.052,1.131-0.157c-0.434-0.645-1.077-0.863-1.938-0.645c-0.219,0.214-0.377,0.214-0.485,0
			c-0.431-0.106-0.833-0.134-1.208-0.085c-0.384,0.061-0.785,0.085-1.212,0.085c-0.861,0.104-1.753,0.159-2.661,0.159
			c-0.919,0-1.804,0.055-2.666,0.159c-0.218,0-0.537-0.215-0.965-0.643c-0.217-0.212-0.271-0.348-0.163-0.404
			c0.105-0.052,0.163-0.135,0.163-0.242l0.965-2.904c0.11-0.428,0.212-0.805,0.325-1.129c0.107-0.326,0.266-0.701,0.484-1.129
			c0.104-0.217,0.104-0.484,0-0.812c0-0.104-0.03-0.08-0.082,0.083c-0.057,0.16-0.137,0.134-0.244-0.083
			c0.325-0.858,0.7-1.721,1.132-2.582c0.423-0.856,0.858-1.714,1.291-2.58c0.43-0.965,0.913-1.91,1.449-2.822
			c0.538-0.917,0.971-1.907,1.293-2.99v-0.32c0.321-0.647,0.59-1.291,0.809-1.938c0.209-0.646,0.426-1.291,0.646-1.938
			c0.212-0.645,0.399-1.264,0.564-1.856c0.161-0.588,0.295-1.208,0.402-1.855c0.211-0.535,0.401-1.049,0.562-1.53
			c0.165-0.485,0.35-0.995,0.564-1.535c0.54-1.185,0.998-2.34,1.375-3.469c0.375-1.136,0.778-2.282,1.21-3.473
			c0.321-1.074,0.429-2.094,0.321-3.067c-0.215-0.75-0.458-1.452-0.725-2.096c-0.271-0.644-0.403-1.349-0.403-2.1l-0.322-0.323
			c-0.432-0.428-0.544-0.809-0.329-1.129c0-0.213-0.053-0.375-0.155-0.484c-0.325-0.104-0.485-0.375-0.485-0.803v-0.489
			c0-0.212-0.164-0.268-0.489-0.157c0,0.214-0.104,0.317-0.318,0.317c0-0.104,0.025-0.185,0.079-0.238
			c0.052-0.052,0.081-0.134,0.081-0.245c0-0.104-0.057-0.157-0.16-0.157c0.104,0,0,0.157-0.329,0.48
			c-0.105,0.108-0.211,0.16-0.318,0.16c-0.109,0-0.162-0.16-0.162-0.483c0-0.75-0.435-1.126-1.292-1.126
			C223.707,301.357,223.324,301.519,222.897,301.729"/>
	</defs>
	<clipPath id="SVGID_11_">
		<use xlink:href="#SVGID_10_"  overflow="visible"/>
	</clipPath>
	
		<linearGradient id="SVGID_12_" gradientUnits="userSpaceOnUse" x1="-165.9351" y1="547.7168" x2="-162.811" y2="547.7168" gradientTransform="matrix(24.4847 0 0 -24.4847 4215.8906 13765.5156)">
		<stop  offset="0" style="stop-color:#F8B133"/>
		<stop  offset="1" style="stop-color:#E84E1B"/>
	</linearGradient>
	<rect x="153.017" y="301.249" clip-path="url(#SVGID_11_)" fill="url(#SVGID_12_)" width="76.498" height="107.166"/>
</g>
</svg>
