<?xml version="1.0" encoding="utf-8"?>
<!-- Generator: Adobe Illustrator 16.0.0, SVG Export Plug-In . SVG Version: 6.00 Build 0)  -->
<!DOCTYPE svg PUBLIC "-//W3C//DTD SVG 1.1//EN" "http://www.w3.org/Graphics/SVG/1.1/DTD/svg11.dtd">
<svg version="1.1" id="Livello_1" xmlns="http://www.w3.org/2000/svg" xmlns:xlink="http://www.w3.org/1999/xlink" x="0px" y="0px"
	 width="494px" height="283.139px" viewBox="0 0 494 283.139" enable-background="new 0 0 494 283.139" xml:space="preserve">
<g>
	<polygon fill="#FF8300" points="16.929,222.131 28.295,222.131 35.083,268.333 56.508,222.131 67.793,222.131 65.339,282.648 
		53.646,282.648 55.281,243.718 38.435,282.648 27.068,282.648 22.49,244.209 12.021,282.648 0,282.648 	"/>
	<path fill="#FF8300" d="M77.933,279.005c-2.728-2.751-4.089-6.829-4.089-12.227c0-2.123,0.272-4.93,0.815-8.422
		c1.092-7.033,3.531-12.156,7.321-15.372c3.788-3.218,9.009-4.824,15.66-4.824c11.122,0,16.683,4.362,16.683,13.084
		c0,5.671-1.69,9.568-5.07,11.691c-3.381,2.128-8.015,3.191-13.901,3.191c-3.873,0-7.006-0.303-9.405-0.898
		c-0.11,1.306-0.165,2.288-0.165,2.944c0,2.068,0.805,3.594,2.413,4.576c1.608,0.98,4.213,1.473,7.811,1.473h14.146l-1.144,7.114
		c-5.779,1.201-11.693,1.802-17.744,1.802C85.101,283.138,80.658,281.757,77.933,279.005 M100.502,257.744
		c1.688-1.063,2.536-2.791,2.536-5.191c0-3.437-2.075-5.15-6.215-5.15c-3,0-5.276,0.941-6.829,2.82
		c-1.554,1.88-2.631,4.756-3.231,8.627c2.073,0.326,3.897,0.49,5.48,0.49C96.059,259.339,98.811,258.808,100.502,257.744"/>
	<path fill="#FF8300" d="M122.622,279.171c-2.101-2.646-3.148-6.394-3.148-11.246c0-3.27,0.297-6.38,0.899-9.323
		c0.87-4.577,2.07-8.325,3.598-11.241c1.526-2.916,3.76-5.168,6.705-6.746c2.944-1.582,6.871-2.372,11.775-2.372
		c3.161,0,5.889,0.382,8.179,1.141l3.025-19.132h12.103l-9.894,62.396h-10.714l-0.736-4.417c-1.69,1.473-3.654,2.655-5.886,3.555
		c-2.236,0.901-4.5,1.354-6.787,1.354C127.758,283.139,124.719,281.812,122.622,279.171 M141.553,272.585
		c1.362-0.54,2.753-1.279,4.171-2.206l3.352-21.097c-1.746-0.871-3.789-1.312-6.134-1.312c-2.998,0-5.342,0.903-7.031,2.701
		c-1.692,1.797-2.973,5.123-3.847,9.974c-0.38,2.185-0.57,3.928-0.57,5.233c0,5.02,1.881,7.527,5.641,7.527
		C138.717,273.407,140.189,273.131,141.553,272.585"/>
	<path fill="#FF8300" d="M172.462,238.734h12.104l-6.871,43.914h-12.184L172.462,238.734z M173.852,231.823
		c-0.273-0.298-0.353-0.697-0.245-1.189l1.227-8.011c0.164-1.147,0.819-1.715,1.963-1.715h9.322c0.98,0,1.418,0.567,1.309,1.715
		l-1.227,8.011c-0.274,1.093-0.899,1.639-1.879,1.639h-9.324C174.509,232.272,174.125,232.121,173.852,231.823"/>
	<path fill="#FF8300" d="M192.007,279.331c-2.238-2.53-3.352-6.306-3.352-11.323c0-2.452,0.326-5.509,0.981-9.159
		c1.143-7.034,3.556-12.227,7.237-15.579c3.679-3.352,9.005-5.026,15.987-5.026c3.648,0,7.14,0.479,10.465,1.432
		c3.323,0.954,5.997,2.193,8.016,3.719l-6.216,39.255h-10.713l-0.653-4.417c-1.366,1.196-3.312,2.316-5.847,3.353
		c-2.535,1.037-4.976,1.556-7.32,1.556C197.104,283.139,194.242,281.868,192.007,279.331 M210.815,272.585
		c1.31-0.54,2.671-1.279,4.088-2.206l3.353-21.097c-0.491-0.33-1.294-0.628-2.413-0.898c-1.116-0.276-2.33-0.413-3.638-0.413
		c-3.216,0-5.642,0.968-7.279,2.903c-1.636,1.936-2.779,4.894-3.432,8.872c-0.44,2.727-0.656,4.743-0.656,6.052
		c0,2.348,0.462,4.201,1.391,5.563c0.927,1.362,2.344,2.046,4.252,2.046C208.061,273.407,209.506,273.131,210.815,272.585"/>
	<path fill="#FF8300" d="M244.181,282.565c-3.491-0.379-6.435-0.847-8.833-1.391l1.472-9.57c5.233,0.441,11.314,0.655,18.234,0.655
		c3.602,0,6.228-0.421,7.895-1.266c1.663-0.848,2.68-2.412,3.068-4.706l0.324-2.122c0.11-0.766,0.166-1.308,0.166-1.64
		c0-1.524-0.546-2.612-1.638-3.269c-1.093-0.655-2.834-0.981-5.232-0.981h-4.824c-4.528,0-8.071-1.157-10.632-3.477
		c-2.565-2.315-3.843-5.409-3.843-9.277c0-1.091,0.08-2.239,0.245-3.435l0.817-4.908c0.873-5.563,3.106-9.538,6.706-11.938
		c3.597-2.398,8.56-3.602,14.884-3.602c2.833,0,5.916,0.181,9.241,0.532c3.324,0.354,6.4,0.858,9.241,1.515l-1.556,9.566
		c-5.072-0.436-11.203-0.656-18.399-0.656c-2.675,0-4.715,0.436-6.131,1.313c-1.419,0.87-2.323,2.426-2.702,4.658l-0.325,2.129
		c-0.111,0.871-0.167,1.468-0.167,1.798c0,1.527,0.437,2.627,1.313,3.311c0.872,0.683,2.261,1.021,4.17,1.021h5.15
		c4.962,0,8.777,1.157,11.447,3.478c2.673,2.316,4.008,5.408,4.008,9.277c0,0.929-0.083,2.019-0.242,3.275l-0.822,5.641
		c-0.815,5.122-2.918,8.849-6.297,11.163c-3.381,2.317-8.586,3.477-15.616,3.477C251.377,283.138,247.67,282.945,244.181,282.565"/>
	<path fill="#FF8300" d="M288.177,279.005c-2.73-2.751-4.092-6.829-4.092-12.227c0-2.123,0.275-4.93,0.815-8.422
		c1.093-7.033,3.531-12.156,7.32-15.372c3.787-3.218,9.013-4.824,15.663-4.824c11.121,0,16.68,4.362,16.68,13.084
		c0,5.671-1.688,9.568-5.067,11.691c-3.381,2.128-8.019,3.191-13.9,3.191c-3.872,0-7.011-0.303-9.408-0.898
		c-0.11,1.306-0.164,2.288-0.164,2.944c0,2.068,0.808,3.594,2.412,4.576c1.609,0.98,4.215,1.473,7.81,1.473h14.149l-1.146,7.114
		c-5.778,1.201-11.693,1.802-17.743,1.802C295.344,283.138,290.9,281.757,288.177,279.005 M310.746,257.744
		c1.686-1.063,2.536-2.791,2.536-5.191c0-3.437-2.074-5.15-6.216-5.15c-2.999,0-5.277,0.941-6.829,2.82
		c-1.553,1.88-2.633,4.756-3.233,8.627c2.073,0.326,3.897,0.49,5.481,0.49C306.301,259.339,309.052,258.808,310.746,257.744"/>
	<path fill="#FF8300" d="M333.803,279.332c-2.725-2.532-4.085-6.823-4.085-12.879c0-1.797,0.27-4.389,0.815-7.769
		c2.073-13.628,8.857-20.44,20.363-20.44c4.031,0,9.047,0.762,15.043,2.288l-1.141,7.03h-11.122c-3.327,0-5.862,1.052-7.604,3.151
		c-1.749,2.096-3.001,5.435-3.766,10.016c-0.326,2.289-0.491,3.845-0.491,4.659c0,3.057,0.642,5.248,1.923,6.587
		c1.283,1.335,3.26,2.005,5.929,2.005h11.695l-1.064,6.865c-4.363,1.527-9.214,2.294-14.558,2.294
		C340.508,283.139,336.527,281.868,333.803,279.332"/>
	<path fill="#FF8300" d="M372.117,280.436c-1.776-1.796-2.661-4.333-2.661-7.604c0-1.796,0.138-3.571,0.407-5.313l4.583-28.784
		h12.104l-4.251,27.311c-0.111,0.764-0.165,1.361-0.165,1.798c0,2.943,1.714,4.417,5.148,4.417c1.854,0,3.561-0.297,5.115-0.898
		c1.55-0.602,3.146-1.5,4.783-2.697l4.742-29.93h12.103l-6.869,43.914H396.36l-0.651-4.499c-2.566,1.743-4.964,3.013-7.196,3.802
		c-2.239,0.787-4.964,1.188-8.177,1.188C376.623,283.138,373.886,282.236,372.117,280.436"/>
	<path fill="#FF8300" d="M423.676,238.734h10.792l0.49,5.641c1.803-1.906,3.668-3.406,5.604-4.499
		c1.934-1.089,4.072-1.633,6.416-1.633c1.855,0,3.329,0.159,4.416,0.491l-1.881,12.104c-2.072-0.11-3.76-0.165-5.067-0.165
		c-2.238,0-4.292,0.325-6.173,0.98c-1.885,0.651-3.505,1.501-4.866,2.537l-4.499,28.458h-12.187L423.676,238.734z"/>
	<path fill="#FF8300" d="M457.608,279.005c-2.726-2.751-4.086-6.829-4.086-12.227c0-2.123,0.27-4.93,0.814-8.422
		c1.093-7.033,3.532-12.156,7.321-15.372c3.787-3.218,9.007-4.824,15.662-4.824c11.121,0,16.68,4.362,16.68,13.084
		c0,5.671-1.688,9.568-5.072,11.691c-3.375,2.128-8.013,3.191-13.901,3.191c-3.871,0-7.004-0.303-9.402-0.898
		c-0.11,1.306-0.164,2.288-0.164,2.944c0,2.068,0.806,3.594,2.412,4.576c1.609,0.98,4.21,1.473,7.811,1.473h14.149l-1.147,7.114
		c-5.779,1.201-11.695,1.802-17.744,1.802C464.78,283.138,460.337,281.757,457.608,279.005 M480.183,257.744
		c1.686-1.063,2.531-2.791,2.531-5.191c0-3.437-2.069-5.15-6.214-5.15c-3,0-5.275,0.941-6.83,2.82
		c-1.55,1.88-2.629,4.756-3.229,8.627c2.074,0.326,3.897,0.49,5.481,0.49C475.737,259.339,478.488,258.808,480.183,257.744"/>
	<path fill="#FF8300" d="M176.504,71.436c0,50.13,10.07,55.144,10.07,85.224c0,20.051,35.248,50.13,35.248,50.13v-60.155
		c0,0-25.175-23.884-25.175-35.094v-5.013l3.523,1.402l34.241,13.636v55.144l12.59,6.265l12.588-6.265v-55.144l34.241-13.636
		l3.525-1.402v5.013c0,11.209-25.176,35.094-25.176,35.094v60.155c0,0,35.248-30.079,35.248-50.13
		c0-30.08,10.069-35.093,10.069-85.224L247,96.503L176.504,71.436z"/>
	<path fill="#FF8300" d="M310.926,67.386c-4.913-22.208-21.208-40.168-42.478-47.51c-3.422,13.092-7.957,30.884-10.504,42.787
		c-1.269,5.94-5.564,9.777-10.944,9.777c-5.38,0-9.675-3.836-10.945-9.777c-2.546-11.901-7.078-29.694-10.5-42.787
		c-21.274,7.342-37.565,25.302-42.479,47.51L247,90.114L310.926,67.386z"/>
	<path fill="#FF8300" d="M247.001,66.424c2.779,0,4.457-2.306,5.038-5.015L267.46,0h-20.459h-20.457l15.422,61.409
		C242.543,64.119,244.221,66.424,247.001,66.424"/>
</g>
</svg>
