<svg id="training-image" class="img-fluid my-4" xmlns="http://www.w3.org/2000/svg" xmlns:xlink="http://www.w3.org/1999/xlink" viewBox="0 0 1370.96 1400"><defs><style>.cls-1,.cls-10,.cls-11,.cls-13,.cls-19,.cls-4{fill:none;}.cls-2{fill:#ec6608;}.cls-16,.cls-3{fill:#b73d25;}.cls-11,.cls-15,.cls-16,.cls-4{stroke:#18191e;}.cls-10,.cls-11,.cls-13,.cls-15,.cls-16,.cls-4{stroke-miterlimit:10;}.cls-16,.cls-4{stroke-width:8.5px;}.cls-15,.cls-5{fill:#fff;}.cls-6{clip-path:url(#clip-path);}.cls-7{clip-path:url(#clip-path-2);}.cls-8{fill:#18191e;}.cls-9{clip-path:url(#clip-path-3);}.cls-10,.cls-19{stroke:#fff;}.cls-10{stroke-width:11.28px;}.cls-11{stroke-width:12.49px;}.cls-12{clip-path:url(#clip-path-4);}.cls-13{stroke:#ec6608;stroke-width:20.3px;}.cls-13,.cls-19{stroke-linecap:round;}.cls-14{fill:#ec660b;}.cls-15{stroke-width:9.02px;}.cls-17{fill:#f4a36b;}.cls-18{clip-path:url(#clip-path-5);}.cls-19{stroke-linejoin:round;stroke-width:11.68px;}</style><clipPath id="clip-path" transform="translate(-23.3 -10)"><polygon class="cls-1" points="923.64 724.41 922.2 822.1 807.13 756.51 807.13 655.72 923.64 724.41"/></clipPath><clipPath id="clip-path-2" transform="translate(-23.3 -10)"><path class="cls-1" d="M1210.4,373.67,607.4,25.58A29.61,29.61,0,0,0,563,51.23V514.44a29.61,29.61,0,0,0,14.81,25.64l603,348.15a29.61,29.61,0,0,0,44.42-25.65V399.32A29.61,29.61,0,0,0,1210.4,373.67Z"/></clipPath><clipPath id="clip-path-3" transform="translate(-23.3 -10)"><path class="cls-1" d="M286.33,512.07l108.08,62.4a22.27,22.27,0,0,1-.06,38.61L172.45,740.3a22.25,22.25,0,0,1-22.21,0l-107.31-62a22.27,22.27,0,0,1,0-38.57L264.06,512.07A22.26,22.26,0,0,1,286.33,512.07Z"/></clipPath><clipPath id="clip-path-4" transform="translate(-23.3 -10)"><path class="cls-1" d="M1123.43,1317l-111,63.29a71.37,71.37,0,0,1-71.06-.19l-25.37-14.65c-29.27-16.89-29.16-59.17.19-75.91l86.44-49.31a120.56,120.56,0,0,1,120,.32l.94.54C1152.89,1258,1152.78,1300.29,1123.43,1317Z"/></clipPath><clipPath id="clip-path-5" transform="translate(-23.3 -10)"><polygon class="cls-1" points="403.21 28.47 311.46 69.17 332.7 302.73 403.21 343.43 473.71 302.73 494.96 69.17 403.21 28.47"/></clipPath></defs><polygon class="cls-2" points="1009.22 814.49 923.06 866.31 692.94 732.17 779.13 681.61 1009.22 814.49"/><polygon class="cls-3" points="920.22 703.51 920.22 802.02 900.35 812.92 795.26 740.41 795.26 639.61 920.22 703.51"/><polyline class="cls-4" points="920.22 703.51 920.22 802.02 899.01 815.69"/><polygon class="cls-5" points="900.35 714.41 898.9 812.1 783.83 746.51 783.83 645.72 900.35 714.41"/><g class="cls-6"><polygon class="cls-2" points="923.65 737.53 922.21 835.22 807.13 769.63 807.13 668.84 923.65 737.53"/></g><polygon class="cls-4" points="900.35 714.41 897.56 812.1 783.83 746.51 783.83 645.72 900.35 714.41"/><path class="cls-3" d="M1237.16,362.1,634.16,14a29.61,29.61,0,0,0-44.42,25.65V502.87a29.61,29.61,0,0,0,14.81,25.64l603,348.15A29.62,29.62,0,0,0,1252,851V387.75A29.61,29.61,0,0,0,1237.16,362.1Z" transform="translate(-23.3 -10)"/><path class="cls-5" d="M1210.4,373.67,607.4,25.58A29.61,29.61,0,0,0,563,51.23V514.44a29.61,29.61,0,0,0,14.81,25.64l603,348.15a29.61,29.61,0,0,0,44.42-25.65V399.32A29.61,29.61,0,0,0,1210.4,373.67Z" transform="translate(-23.3 -10)"/><g class="cls-7"><path class="cls-2" d="M1287.27,422.31,633.78,45.08c-21.39-12.35-48.14,3.09-48.14,27.79v502a32.08,32.08,0,0,0,16.05,27.79l653.48,377.29a32.09,32.09,0,0,0,48.14-27.79v-502A32.1,32.1,0,0,0,1287.27,422.31Z" transform="translate(-23.3 -10)"/></g><path class="cls-8" d="M1176.75,392.79,650.59,89.64a24.9,24.9,0,0,0-37.37,21.56V509.26a24.9,24.9,0,0,0,12.43,21.55L1151.81,834a24.9,24.9,0,0,0,37.37-21.56V414.35A24.91,24.91,0,0,0,1176.75,392.79Z" transform="translate(-23.3 -10)"/><path class="cls-4" d="M1210.4,373.67,607.4,25.58A29.61,29.61,0,0,0,563,51.23V514.44a29.61,29.61,0,0,0,14.81,25.64l603,348.15a29.61,29.61,0,0,0,44.42-25.65V399.32A29.61,29.61,0,0,0,1210.4,373.67Z" transform="translate(-23.3 -10)"/><path class="cls-3" d="M293.44,532.34,404.7,596.58a22.93,22.93,0,0,1-.06,39.75l-228.45,131a22.9,22.9,0,0,1-22.86,0L42.85,703.49a22.92,22.92,0,0,1,0-39.71L270.51,532.34A22.91,22.91,0,0,1,293.44,532.34Z" transform="translate(-23.3 -10)"/><path class="cls-5" d="M286.33,512.07l108.08,62.4a22.27,22.27,0,0,1-.06,38.61L172.45,740.3a22.25,22.25,0,0,1-22.21,0l-107.31-62a22.27,22.27,0,0,1,0-38.57L264.06,512.07A22.26,22.26,0,0,1,286.33,512.07Z" transform="translate(-23.3 -10)"/><g class="cls-9"><path class="cls-2" d="M282.81,526.46l108.08,62.4a22.27,22.27,0,0,1-.06,38.61L168.93,754.7a22.27,22.27,0,0,1-22.21,0l-107.31-62a22.27,22.27,0,0,1,0-38.57L260.54,526.46A22.31,22.31,0,0,1,282.81,526.46Z" transform="translate(-23.3 -10)"/></g><g id="schermo-smartphone"><path class="cls-8 turn-black" d="M262.82,537.91a17,17,0,0,1,17.12.09l88.51,52.31a11.54,11.54,0,0,1,0,20L180.54,718a15.36,15.36,0,0,1-15.31,0l-95-56a7.48,7.48,0,0,1,.06-12.92Z" transform="translate(-23.3 -10)"/></g><path class="cls-8" d="M275.2,509.09a22.22,22.22,0,0,1,11.13,3l108.08,62.4a22.27,22.27,0,0,1-.06,38.61L172.45,740.3a22.28,22.28,0,0,1-22.21,0l-107.31-62a22.27,22.27,0,0,1,0-38.57L264.06,512.07a22.26,22.26,0,0,1,11.14-3m0-8.5a30.77,30.77,0,0,0-15.39,4.12L38.68,632.38a30.77,30.77,0,0,0,0,53.29l107.31,62a30.8,30.8,0,0,0,30.69,0l221.9-127.23a30.77,30.77,0,0,0,.08-53.34l-108.08-62.4a30.77,30.77,0,0,0-15.38-4.12Z" transform="translate(-23.3 -10)"/><path class="cls-10" d="M961.38,957c107.69,104.42,172.81,2.82,293.09-.07,176-4.22,195.37,222.11-41.93,219.4-54.4-.62-119.36,63.45-119.36,63.45" transform="translate(-23.3 -10)"/><polygon class="cls-2" points="98.51 911.99 698.58 1268.33 1093.46 1040.78 480.25 683.81 98.51 911.99"/><path class="cls-3" d="M437.81,1082.77c-84.08-146.88-140.32-81-277.58-160.28L508.82,721c137.26,79.24,193.5,13.4,277.58,160.29Z" transform="translate(-23.3 -10)"/><path class="cls-3" d="M437.79,1082.83c169.17,5.26,149.67,90.1,284.09,174.08l347-202.77C934.5,970.17,954,885.32,784.83,880.07Z" transform="translate(-23.3 -10)"/><path class="cls-5" d="M727.71,1231.77c-49.06-31.08-75.12-61.34-98.15-88.08-38.52-44.71-66.43-77.12-171.14-80.87-52.48-90.68-94.2-100.11-151.76-113.11-33.41-7.55-71.07-16.06-119.39-42.79L526.78,710.64c51.71,29.45,91.4,38.42,126.47,46.35,55.57,12.55,95.72,21.62,146.49,109.78l1.26,2.17,2.51.08c102.11,3.34,129,34.57,166.25,77.8,22.83,26.51,48.57,56.4,96.24,87.3Z" transform="translate(-23.3 -10)"/><path class="cls-8" d="M526.81,715.84c51.18,28.77,90.57,37.67,125.45,45.55,27.4,6.19,51.06,11.53,73.57,25.85,24.65,15.67,46.9,41.66,70,81.78l2.51,4.35,5,.16c46.48,1.52,80,8.94,105.49,23.35C932.12,910,948,928.45,966.34,949.77c22,25.59,46.78,54.31,91.12,84.11l-329.64,192.6c-47-30.2-72.38-59.65-94.84-85.73-37.49-43.53-67.22-78.06-171.91-82.34C408.12,968,363.68,958,307.65,945.3c-31.45-7.1-66.72-15.07-111.13-38.52L526.81,715.84m0-10.4L178.18,907c137.26,79.24,193.5,13.4,277.58,160.29h0c169.17,5.25,137.45,85.82,271.87,169.79l347-202.76C940.48,950.45,971.85,870,803.65,864.51c-83.69-145.3-140-80.06-276.88-159.07Z" transform="translate(-23.3 -10)"/><path class="cls-3" d="M1123.43,1337.34l-111,63.28a71.39,71.39,0,0,1-71.06-.18l-25.37-14.65c-29.27-16.9-29.16-59.18.19-75.92l86.44-49.3a120.56,120.56,0,0,1,120,.31l.94.54C1152.89,1278.32,1152.78,1320.59,1123.43,1337.34Z" transform="translate(-23.3 -10)"/><path class="cls-5" d="M1123.43,1317l-111,63.29a71.37,71.37,0,0,1-71.06-.19l-25.37-14.65c-29.27-16.89-29.16-59.17.19-75.91l86.44-49.31a120.56,120.56,0,0,1,120,.32l.94.54C1152.89,1258,1152.78,1300.29,1123.43,1317Z" transform="translate(-23.3 -10)"/><path class="cls-11" d="M1123.43,1317l-111,63.29a71.37,71.37,0,0,1-71.06-.19l-25.37-14.65c-29.27-16.89-29.16-59.17.19-75.91l86.44-49.31a120.56,120.56,0,0,1,120,.32l.94.54C1152.89,1258,1152.78,1300.29,1123.43,1317Z" transform="translate(-23.3 -10)"/><g class="cls-12"><line class="cls-11" x1="1094.71" y1="1210.14" x2="996.09" y2="1271.1"/><line class="cls-11" x1="1092.34" y1="1325.27" x2="949.96" y2="1240.62"/></g><line class="cls-13" x1="1049.85" y1="1237.75" x2="1029.45" y2="1249.22"/><polygon class="cls-8" points="646.82 887.58 632.33 879.17 648.84 869.66 663.33 878.06 646.82 887.58"/><polygon class="cls-8" points="662.07 896.43 651.53 890.32 668.03 880.79 678.57 886.91 662.07 896.43"/><polygon class="cls-8" points="454.56 775.96 440.14 767.59 456.71 758.16 471.13 766.52 454.56 775.96"/><polygon class="cls-5" points="469.73 784.76 459.24 778.67 475.81 769.24 486.29 775.32 469.73 784.76"/><polygon class="cls-8" points="485.88 794.14 475.38 788.05 491.94 778.6 502.43 784.69 485.88 794.14"/><polygon class="cls-8" points="551.97 813.44 570.36 824.11 553.83 833.59 535.43 822.91 551.97 813.44"/><polygon class="cls-8" points="527.1 799.01 545.49 809.67 528.94 819.14 510.56 808.47 527.1 799.01"/><polygon class="cls-8" points="620.5 853.21 638.93 863.9 622.42 873.41 603.99 862.71 620.5 853.21"/><polygon class="cls-14" points="576.69 827.79 614.84 849.92 598.32 859.42 560.16 837.27 576.69 827.79"/><polygon class="cls-8" points="509.16 788.6 519.66 794.69 503.11 804.14 492.61 798.05 509.16 788.6"/><polygon class="cls-8" points="387.26 847.13 377.14 841.25 393.81 831.74 403.92 837.63 387.26 847.13"/><polygon class="cls-8" points="366.62 835.12 344.29 822.12 360.97 812.64 383.29 825.62 366.62 835.12"/><polygon class="cls-2" points="426.03 869.7 395.77 852.08 412.42 842.57 442.67 860.17 426.03 869.7"/><polygon class="cls-8" points="480.91 882.42 495.4 890.85 478.77 900.39 464.28 891.96 480.91 882.42"/><polygon class="cls-8" points="465.68 873.56 476.21 879.68 459.57 889.22 449.04 883.09 465.68 873.56"/><polygon class="cls-8" points="447.74 863.12 458.26 869.24 441.62 878.77 431.09 872.64 447.74 863.12"/><polygon class="cls-8" points="503.64 914.87 485.19 904.13 501.81 894.58 520.26 905.31 503.64 914.87"/><polygon class="cls-2" points="506.18 751.08 487.85 740.44 504.37 731.04 522.7 741.67 506.18 751.08"/><polygon class="cls-8" points="535.05 767.82 516.7 757.17 533.21 747.76 551.56 758.4 535.05 767.82"/><polygon class="cls-8" points="614.62 813.96 588.35 798.72 604.84 789.28 631.1 804.5 614.62 813.96"/><polygon class="cls-8" points="639.07 828.14 620.67 817.47 637.15 808.01 655.54 818.67 639.07 828.14"/><polygon class="cls-8" points="568.63 787.29 558.14 781.2 574.64 771.77 585.13 777.85 568.63 787.29"/><polygon class="cls-8" points="552.49 777.93 542 771.85 558.5 762.42 568.99 768.5 552.49 777.93"/><polygon class="cls-5" points="408.92 785.35 427.28 796.02 410.66 805.49 392.29 794.81 408.92 785.35"/><polygon class="cls-8" points="564.4 875.7 582.84 886.41 566.27 895.95 547.83 885.22 564.4 875.7"/><polygon class="cls-8" points="590.76 891.02 601.3 897.14 584.74 906.69 574.2 900.56 590.76 891.02"/><polygon class="cls-8" points="606.98 900.44 617.53 906.57 600.97 916.12 590.42 909.99 606.98 900.44"/><polygon class="cls-8" points="471.36 821.64 489.76 832.33 473.16 841.82 454.76 831.13 471.36 821.64"/><polygon class="cls-5" points="435.14 800.59 445.64 806.69 429.03 816.16 418.52 810.06 435.14 800.59"/><polygon class="cls-5" points="451.29 809.98 461.79 816.08 445.19 825.56 434.68 819.45 451.29 809.98"/><polygon class="cls-3" points="386.98 804.41 236.06 589.19 278.74 562.02 431.79 780.85 431.79 830.59 386.98 804.41"/><path class="cls-8" d="M300.81,578.14,450.58,792.27v40.46L413.4,811,265.76,600.46l35.05-22.32m2.44-12.25L296,570.53l-35.06,22.32-8,5.06,5.42,7.73L406,816.2l1.13,1.61,1.71,1L446,840.52l13.58,7.93v-59L458,787.1,308.21,573l-5-7.08Z" transform="translate(-23.3 -10)"/><line class="cls-15" x1="779.46" y1="856.55" x2="434.68" y2="1053.17"/><polygon class="cls-16" points="379.91 209.66 309.41 250.36 309.41 292.73 379.91 333.43 450.42 292.73 450.42 250.36 379.91 209.66"/><polygon class="cls-17" points="379.91 499.09 309.41 458.38 309.41 292.73 379.91 333.43 379.91 499.09"/><polygon class="cls-3" points="379.91 499.09 450.42 458.38 450.42 292.73 379.91 333.43 379.91 499.09"/><g class="cls-18"><polygon class="cls-2" points="366.51 363.95 411.98 105.05 461.37 116.02 414.86 378.98 379.69 414.15 366.51 363.95"/><path class="cls-8" d="M438.9,120.48l40.57,9L434,386.8l-28.61,28.6-10.93-41.64L438.9,120.48m-7.25-10.85L430,118.92,385.53,372.2l-.34,1.95.5,1.9,10.93,41.65,4,15.2,11.11-11.11,28.61-28.61,2-2,.5-2.8,45.51-257.31,1.5-8.51-8.43-1.87-40.57-9-9.21-2Z" transform="translate(-23.3 -10)"/><polygon class="cls-5" points="322.66 172.86 335.84 122.66 371.01 157.83 417.52 420.8 368.13 431.76 322.66 172.86"/><path class="cls-8" d="M361.5,141.41,390.11,170l45.51,257.31-40.56,9L350.57,183.05l10.93-41.64m-4.73-17.5-4,15.21-10.94,41.64-.5,1.91.34,1.94L386.17,437.9l1.63,9.29,9.21-2,40.57-9,8.43-1.87-1.5-8.51L399,168.45l-.5-2.8-2-2L367.89,135l-11.12-11.12Z" transform="translate(-23.3 -10)"/></g><polygon class="cls-4" points="379.91 499.09 309.41 458.38 309.41 292.73 379.91 333.43 379.91 499.09"/><polygon class="cls-4" points="379.91 499.09 450.42 458.38 450.42 292.73 379.91 333.43 379.91 499.09"/><g id="cappello" class="animate__delay-3s myfadein"><polygon class="cls-19" points="1054.41 413.23 877.26 496.11 700.12 413.23 877.26 330.34 1054.41 413.23"/><polyline class="cls-19" points="750.27 436.68 750.27 521.06 877.26 583.98 1004.26 521.06 1004.26 436.7"/><line class="cls-19" x1="877.26" y1="496.11" x2="877.26" y2="534.79"/><line class="cls-19" x1="877.26" y1="396.19" x2="877.26" y2="434.87"/><polyline class="cls-19" points="877.47 413.23 1055.87 413.23 1055.63 510.33"/><polyline class="cls-19" points="1032.51 545.01 1055.63 510.33 1078.76 545.01"/></g></svg>