<svg id="security-assessment-image" class="img-fluid my-4" viewBox="0 0 1405.36 1330.19"><defs><style>.rls-1,.rls-5,.rls-6,.rls-7{fill:#18191e;}.rls-2{fill:#fff;}.rls-3,.rls-8,.rls-9{fill:none;}.rls-3{stroke:#ec6608;stroke-width:8.87px;}.rls-3,.rls-5,.rls-6,.rls-7,.rls-8,.rls-9{stroke-linejoin:round;}.rls-4{fill:#f4a36b;}.rls-5,.rls-6,.rls-7,.rls-8,.rls-9{stroke:#fff;}.rls-5,.rls-6,.rls-9{stroke-width:10.72px;}.rls-6,.rls-8,.rls-9{stroke-linecap:round;}.rls-7{stroke-width:10.24px;}.rls-8{stroke-width:8.27px;}</style></defs><path class="rls-1" d="M1085.35,670.82c-.36,0-.72,0-1.07.06l-4.11-47.57a16.87,16.87,0,1,0-7.36-27.3l-51.95-96.27a16.86,16.86,0,1,0-19.67-27L951.1,420.37a16.87,16.87,0,1,0-21.31-17.69L861.18,363a16.85,16.85,0,1,0-31.27-10.8L727,337.64a16.86,16.86,0,1,0-29.37,2.12L665,349.64a16.87,16.87,0,0,0-33,4.89,16.65,16.65,0,0,0,.57,4.26l-132,34.49a16.86,16.86,0,1,0-25.16,18.15L358.72,565.93a16.86,16.86,0,1,0-11.65,30.24L336.19,718.74c-.51,0-1-.08-1.54-.08a16.87,16.87,0,1,0,2.87,33.48l8.07,45a16.86,16.86,0,1,0,10.68,31.59l51.2,99.54a16.86,16.86,0,1,0,19.94,25.08l52,47.64a16.86,16.86,0,1,0,26.28,20.73l55.87,37.49a16.86,16.86,0,1,0,30.67,11.87L699.56,1087a16.86,16.86,0,1,0,32.82-2.38l190.71-57.31A16.86,16.86,0,1,0,949.37,1009l116-154.33a16.86,16.86,0,1,0,11.18-30.29l7.51-119.9c.44,0,.88.07,1.32.07a16.87,16.87,0,1,0,0-33.74Z" transform="translate(-10 -42.22)"/><circle class="rls-2" cx="700" cy="676.44" r="223.75"/><polygon class="rls-3" points="821.21 406.79 772.87 577.43 600.76 468.31 821.21 406.79"/><polygon class="rls-3" points="821.21 406.79 772.87 577.43 961.83 597.94 821.21 406.79"/><polygon class="rls-3" points="821.21 406.79 1002.85 442.67 961.83 597.94 821.21 406.79"/><polygon class="rls-3" points="1075.36 641.15 1002.85 442.67 961.83 597.94 1075.36 641.15"/><polygon class="rls-3" points="1075.36 641.15 1002.85 442.67 1068.76 564.81 1075.36 641.15"/><polygon class="rls-3" points="821.21 406.79 1002.85 442.67 836.59 312.31 821.21 406.79"/><polygon class="rls-3" points="929.61 366.14 1002.85 442.67 836.59 312.31 929.61 366.14"/><polygon class="rls-3" points="821.21 406.79 638.85 312.31 836.59 312.31 821.21 406.79"/><polygon class="rls-3" points="821.21 406.79 638.85 312.31 600.76 468.31 821.21 406.79"/><polygon class="rls-3" points="457.21 419.97 638.85 312.31 600.76 468.31 457.21 419.97"/><polygon class="rls-3" points="457.21 419.97 413.27 606 600.76 468.31 457.21 419.97"/><polygon class="rls-3" points="600.76 699.75 413.27 606 600.76 468.31 600.76 699.75"/><polygon class="rls-3" points="600.76 699.75 772.87 577.43 600.76 468.31 600.76 699.75"/><polygon class="rls-3" points="600.76 699.75 772.87 577.43 826.34 780.31 600.76 699.75"/><polygon class="rls-3" points="600.76 699.75 644.7 918.73 826.34 780.31 600.76 699.75"/><polygon class="rls-3" points="600.76 699.75 644.7 918.73 460.14 817.66 600.76 699.75"/><polygon class="rls-3" points="961.83 597.94 772.87 577.43 826.34 780.31 961.83 597.94"/><polygon class="rls-3" points="961.83 597.94 1002.85 817.66 826.34 780.31 961.83 597.94"/><polygon class="rls-3" points="841.35 950.59 1002.85 817.66 826.34 780.31 841.35 950.59"/><polygon class="rls-3" points="841.35 950.59 644.7 918.73 826.34 780.31 841.35 950.59"/><polygon class="rls-3" points="841.35 950.59 644.7 918.73 706.23 1047.27 841.35 950.59"/><polygon class="rls-3" points="841.35 950.59 1002.85 817.66 929.24 980.25 841.35 950.59"/><polygon class="rls-3" points="841.35 950.59 706.23 1047.27 929.24 980.25 841.35 950.59"/><polygon class="rls-3" points="961.83 597.94 1002.85 817.66 1075.36 641.15 961.83 597.94"/><polygon class="rls-3" points="1065.47 798.99 1002.85 817.66 1075.36 641.15 1065.47 798.99"/><polygon class="rls-3" points="1065.47 798.99 1002.85 817.66 929.24 980.25 1065.47 798.99"/><polygon class="rls-3" points="457.21 419.97 413.27 606 338.56 537.15 457.21 419.97"/><polygon class="rls-3" points="338.56 771.52 413.27 606 338.56 537.15 338.56 771.52"/><polygon class="rls-3" points="338.56 771.52 413.27 606 460.14 817.66 338.56 771.52"/><polygon class="rls-3" points="600.76 699.75 413.27 606 460.14 817.66 600.76 699.75"/><polygon class="rls-3" points="338.56 771.52 324.64 693.88 338.56 537.15 338.56 771.52"/><polygon class="rls-3" points="457.21 419.97 476.25 354.79 338.56 537.15 457.21 419.97"/><polygon class="rls-3" points="457.21 419.97 638.85 312.31 476.25 354.79 457.21 419.97"/><polygon class="rls-3" points="701.69 293.26 638.85 312.31 836.59 312.31 701.69 293.26"/><polygon class="rls-3" points="482.11 970.37 644.7 918.73 460.14 817.66 482.11 970.37"/><polygon class="rls-3" points="482.11 970.37 338.56 771.52 460.14 817.66 482.11 970.37"/><polygon class="rls-3" points="482.11 970.37 338.56 771.52 404.11 898.96 482.11 970.37"/><polygon class="rls-3" points="482.11 970.37 644.7 918.73 706.23 1047.27 482.11 970.37"/><polygon class="rls-3" points="482.11 970.37 565.61 1026.39 706.23 1047.27 482.11 970.37"/><circle class="rls-2" cx="600.76" cy="468.31" r="21.2"/><circle class="rls-2" cx="772.87" cy="577.43" r="21.2"/><circle class="rls-2" cx="600.76" cy="699.74" r="21.2"/><circle class="rls-2" cx="413.27" cy="606" r="21.2"/><circle class="rls-2" cx="644.7" cy="918.73" r="21.2"/><circle class="rls-2" cx="460.14" cy="817.66" r="21.2"/><circle class="rls-2" cx="826.34" cy="780.31" r="21.2"/><circle class="rls-2" cx="841.35" cy="950.59" r="21.2"/><circle class="rls-2" cx="1002.85" cy="817.66" r="21.2"/><circle class="rls-2" cx="961.83" cy="597.94" r="21.2"/><circle class="rls-2" cx="821.21" cy="406.78" r="21.2"/><circle class="rls-2" cx="638.84" cy="312.31" r="16.87"/><circle class="rls-2" cx="836.59" cy="312.31" r="16.87"/><circle class="rls-2" cx="701.69" cy="288.28" r="16.87"/><circle class="rls-2" cx="936.59" cy="361.9" r="16.87"/><circle class="rls-2" cx="1002.85" cy="442.67" r="16.87"/><circle class="rls-2" cx="474.08" cy="354.78" r="16.87"/><circle class="rls-2" cx="338.56" cy="537.15" r="16.87"/><circle class="rls-2" cx="324.65" cy="693.31" r="16.87"/><circle class="rls-2" cx="338.56" cy="771.52" r="16.87"/><circle class="rls-2" cx="403.33" cy="901.86" r="16.87"/><circle class="rls-2" cx="481.34" cy="970.73" r="16.87"/><circle class="rls-2" cx="565.6" cy="1026.39" r="16.87"/><circle class="rls-2" cx="706.23" cy="1047.27" r="16.87"/><circle class="rls-2" cx="929.24" cy="980.25" r="16.87"/><circle class="rls-2" cx="1065.47" cy="798.98" r="16.87"/><circle class="rls-2" cx="1075.35" cy="645.47" r="16.87"/><circle class="rls-2" cx="1075.35" cy="565.04" r="16.87"/><g id="poly-white" class="spin-opposite"><path class="rls-2" d="M710,169l468.49,270.49v541L710,1251,241.51,980.48v-541L710,169m0-23a23,23,0,0,0-11.49,3.08L230,419.61a23,23,0,0,0-11.49,19.91v541A23,23,0,0,0,230,1000.39l468.49,270.48a23,23,0,0,0,23,0L1190,1000.39a23,23,0,0,0,11.49-19.91v-541A23,23,0,0,0,1190,419.61L721.49,149.13A23,23,0,0,0,710,146.05Z" transform="translate(-10 -42.22)"/></g><g id="poly-orange" class="spin"><path class="rls-4" d="M710,169l468.49,270.49v541L710,1251,241.51,980.48v-541L710,169m0-23a23,23,0,0,0-11.49,3.08L230,419.61a23,23,0,0,0-11.49,19.91v541A23,23,0,0,0,230,1000.39l468.49,270.48a23,23,0,0,0,23,0L1190,1000.39a23,23,0,0,0,11.49-19.91v-541A23,23,0,0,0,1190,419.61L721.49,149.13A23,23,0,0,0,710,146.05Z" transform="translate(-10 -42.22)"/></g><rect class="rls-1" x="588.52" y="1123.33" width="246.62" height="172.55" rx="16.09"/><path class="rls-2" d="M829.06,1170.92a10.73,10.73,0,0,1,10.72,10.72V1322a10.73,10.73,0,0,1-10.72,10.72H614.61A10.74,10.74,0,0,1,603.88,1322V1181.64a10.74,10.74,0,0,1,10.73-10.72H829.06m0-10.72H614.61a21.44,21.44,0,0,0-21.45,21.44V1322a21.45,21.45,0,0,0,21.45,21.45H829.06A21.45,21.45,0,0,0,850.5,1322V1181.64a21.44,21.44,0,0,0-21.44-21.44Z" transform="translate(-10 -42.22)"/><rect class="rls-5" x="665.66" y="1296.08" width="92.34" height="28.75"/><line class="rls-6" x1="641.25" y1="1324.83" x2="782.41" y2="1324.83"/><path class="rls-1" d="M661.13,189a5.37,5.37,0,0,1-5.25-6.47l6-28.17a23,23,0,0,1,22.36-18.13h17.5V130.9a44.09,44.09,0,1,1,40.29,0v5.32h17.5a23,23,0,0,1,22.35,18.13l6,28.17a5.38,5.38,0,0,1-5.25,6.47Z" transform="translate(-10 -42.22)"/><path class="rls-2" d="M721.83,53a38.72,38.72,0,0,1,14.78,74.52v14.12h22.87a17.47,17.47,0,0,1,17.1,13.87l6,28.17H661.13l6-28.17a17.49,17.49,0,0,1,17.11-13.87h22.86V127.47A38.73,38.73,0,0,1,721.83,53m0-10.73a49.47,49.47,0,0,0-30.19,88.64h-7.45a28.34,28.34,0,0,0-27.6,22.38l-6,28.17a10.73,10.73,0,0,0,10.5,12.94H782.54A10.72,10.72,0,0,0,793,181.41l-5.95-28.17a28.34,28.34,0,0,0-27.6-22.38H752a49.47,49.47,0,0,0-30.19-88.64Z" transform="translate(-10 -42.22)"/><path class="rls-1" d="M37.43,457.14v-137a16.1,16.1,0,0,1,16.09-16.09H248.45a16.11,16.11,0,0,1,16.1,16.09v137Z" transform="translate(-10 -42.22)"/><path class="rls-2" d="M248.45,309.45a10.75,10.75,0,0,1,10.74,10.73v131.6H42.79V320.18a10.74,10.74,0,0,1,10.73-10.73H248.45m0-10.72H53.52a21.45,21.45,0,0,0-21.46,21.45V462.5H269.91V320.18a21.45,21.45,0,0,0-21.46-21.45Z" transform="translate(-10 -42.22)"/><path class="rls-1" d="M21.32,506.07A5.94,5.94,0,0,1,16,497.42L33.68,463A5.91,5.91,0,0,1,39,459.79H263a5.91,5.91,0,0,1,5.29,3.22l17.65,34.41a5.94,5.94,0,0,1-5.29,8.65Z" transform="translate(-10 -42.22)"/><path class="rls-2" d="M263,465.15a.59.59,0,0,1,.52.31l17.65,34.41a.47.47,0,0,1,0,.56.5.5,0,0,1-.5.28H21.32a.58.58,0,0,1-.52-.84l17.65-34.41a.59.59,0,0,1,.52-.31H263m0-10.73H39a11.32,11.32,0,0,0-10.06,6.15L11.26,495a11.3,11.3,0,0,0,10.06,16.46H280.65A11.3,11.3,0,0,0,290.71,495l-17.65-34.4A11.31,11.31,0,0,0,263,454.42Z" transform="translate(-10 -42.22)"/><rect class="rls-5" x="1161.25" y="886.43" width="90.8" height="149.97" rx="20.46"/><rect class="rls-7" x="47.07" y="889.92" width="187.84" height="33.65"/><line class="rls-8" x1="65.84" y1="906.74" x2="66.35" y2="906.74"/><line class="rls-8" x1="86.52" y1="906.74" x2="87.03" y2="906.74"/><line class="rls-8" x1="107.19" y1="906.74" x2="107.7" y2="906.74"/><line class="rls-8" x1="215.62" y1="906.74" x2="216.13" y2="906.74"/><rect class="rls-7" x="47.07" y="943.21" width="187.84" height="33.65"/><line class="rls-8" x1="65.84" y1="960.04" x2="66.35" y2="960.04"/><line class="rls-8" x1="86.52" y1="960.04" x2="87.03" y2="960.04"/><line class="rls-8" x1="107.19" y1="960.04" x2="107.7" y2="960.04"/><line class="rls-8" x1="215.62" y1="960.04" x2="216.13" y2="960.04"/><rect class="rls-7" x="47.07" y="999.26" width="187.84" height="33.65"/><line class="rls-8" x1="65.84" y1="1016.09" x2="66.35" y2="1016.09"/><line class="rls-8" x1="86.52" y1="1016.09" x2="87.03" y2="1016.09"/><line class="rls-8" x1="107.19" y1="1016.09" x2="107.7" y2="1016.09"/><line class="rls-8" x1="215.62" y1="1016.09" x2="216.13" y2="1016.09"/><path class="rls-1" d="M1200.92,516.8a5.38,5.38,0,0,1-4.92-7.51L1208.78,480a5.35,5.35,0,0,1,4.91-3.22h168.44a5.35,5.35,0,0,1,4.92,3.22l12.77,29.31a5.37,5.37,0,0,1-4.91,7.51Z" transform="translate(-10 -42.22)"/><path class="rls-2" d="M1382.13,482.12l12.78,29.31h-194l12.77-29.31h168.44m0-10.72H1213.69a10.71,10.71,0,0,0-9.83,6.44l-12.77,29.31a10.73,10.73,0,0,0,9.83,15h194a10.73,10.73,0,0,0,9.83-15L1392,477.84a10.72,10.72,0,0,0-9.84-6.44Z" transform="translate(-10 -42.22)"/><line class="rls-9" x1="1234.83" y1="366.79" x2="1226.15" y2="434.38"/><line class="rls-9" x1="1340.99" y1="366.79" x2="1349.68" y2="434.38"/><path class="rls-9" d="M1254.52,370.33a52.57,52.57,0,0,1,86.28-1.26" transform="translate(-10 -42.22)"/><path class="rls-9" d="M1219,339.7a102.57,102.57,0,0,1,157.57-.83" transform="translate(-10 -42.22)"/><path class="rls-9" d="M1185.83,311A149.2,149.2,0,0,1,1410,310.6" transform="translate(-10 -42.22)"/></svg>